<svg
  xmlns="http://www.w3.org/2000/svg"
  xmlns:xlink="http://www.w3.org/1999/xlink"
  viewBox="0 0 409.88 344.03">
  <defs>
    <linearGradient
      id="treegrad"
      x1="305.34"
      y1="307.74"
      x2="305.34"
      y2="99.57"
      gradientUnits="userSpaceOnUse">
      <stop offset="0" stop-color="#3c7536" />
      <stop offset="1" stop-color="#9dd115" />
    </linearGradient>
    <clipPath id="textoutline" transform="translate(-23.55 -46.08)">
      <path
        d="M50.65,375a19.44,19.44,0,0,1-6.46-4.36A19.23,19.23,0,0,1,40,363.87a24.16,24.16,0,0,1-1.52-8.7A23.37,23.37,0,0,1,40,346.73a21.41,21.41,0,0,1,4.15-6.86,18.71,18.71,0,0,1,6.4-4.55,20.57,20.57,0,0,1,8.37-1.65,20.25,20.25,0,0,1,8.24,1.65,19.74,19.74,0,0,1,6.46,4.48,19.47,19.47,0,0,1,4.16,6.8,24.83,24.83,0,0,1,1.45,8.57,24.27,24.27,0,0,1-1.45,8.5,19.53,19.53,0,0,1-4.16,6.73,19.74,19.74,0,0,1-6.46,4.48,20.25,20.25,0,0,1-8.24,1.65A21.08,21.08,0,0,1,50.65,375m-25-82.16a6.41,6.41,0,0,0-2.11,5.28V352a48.16,48.16,0,0,0,2.64,16.75,32.62,32.62,0,0,0,7.38,11.87,30.58,30.58,0,0,0,11.28,7.12,41.62,41.62,0,0,0,14.3,2.37,37.81,37.81,0,0,0,14.31-2.64,34.29,34.29,0,0,0,11.27-7.25,32.26,32.26,0,0,0,7.39-11.07,36.62,36.62,0,0,0,2.64-14,37.45,37.45,0,0,0-2.57-14.05A33.93,33.93,0,0,0,85.06,330a32.15,32.15,0,0,0-10.68-7.25A34.27,34.27,0,0,0,61,320.22a28.84,28.84,0,0,0-13.32,3,26.81,26.81,0,0,0-9.1,7.18V292.53c-.44-.18-1.32-.46-2.64-.86a14.91,14.91,0,0,0-4.35-.59,9.17,9.17,0,0,0-5.93,1.71m84.66,30.92q-2.11,1.67-2.11,5.35v59.21h15V323.52c-.44-.18-1.32-.46-2.64-.86a15.25,15.25,0,0,0-4.35-.59,9.46,9.46,0,0,0-5.93,1.64M109.26,295a9.25,9.25,0,1,0,6.47-2.63,8.79,8.79,0,0,0-6.47,2.63m37.52,31.85q-7.46,6.66-7.45,18.79v42.6h15V350q0-16.35,15.43-16.35a28.07,28.07,0,0,1,7.51.92,36.52,36.52,0,0,1,5.54,2,8.84,8.84,0,0,0,2-2.63,8.49,8.49,0,0,0,1.25-4.36q0-4.74-5.21-7.05t-13.51-2.31q-13.2,0-20.64,6.66m65.41-4.35a32.63,32.63,0,0,0-11.55,6.79A31.14,31.14,0,0,0,193,340.4a38.4,38.4,0,0,0-2.77,15,36.77,36.77,0,0,0,2.83,14.9,31.41,31.41,0,0,0,7.72,10.88,32.75,32.75,0,0,0,11.34,6.66A42,42,0,0,0,226,390.11a49.53,49.53,0,0,0,8.51-.66,46.55,46.55,0,0,0,6.72-1.65,43.6,43.6,0,0,0,5.28-2.11,32.31,32.31,0,0,0,3.89-2.17L244,372.31a48.09,48.09,0,0,1-5.47,2.7,26.53,26.53,0,0,1-10.62,1.78,28.09,28.09,0,0,1-8.57-1.25,19.35,19.35,0,0,1-7-3.89,18,18,0,0,1-4.75-6.73,25.58,25.58,0,0,1-1.71-9.89,25.16,25.16,0,0,1,1.65-9.56,19.18,19.18,0,0,1,4.48-6.72,18,18,0,0,1,6.73-4,25.85,25.85,0,0,1,8.37-1.32,26.71,26.71,0,0,1,11.08,2,25.65,25.65,0,0,1,6.86,4.29,19.62,19.62,0,0,0,3.36-3.43,7.73,7.73,0,0,0,1.78-4.88,7.33,7.33,0,0,0-1.26-4,11,11,0,0,0-4.08-3.56,28.92,28.92,0,0,0-7.39-2.64,49.65,49.65,0,0,0-11-1,43.27,43.27,0,0,0-14.3,2.31M261,292.79a6.41,6.41,0,0,0-2.11,5.28v90.2h15V352.79q0-8.57,4.54-13.78T292,333.8q8.84,0,12.46,4.49t3.63,13.18v36.8h15V347a31.9,31.9,0,0,0-2-11.74,22.11,22.11,0,0,0-5.67-8.37,24.64,24.64,0,0,0-8.77-5.08,34.71,34.71,0,0,0-11.14-1.71q-8.44,0-13.72,2.77a25.57,25.57,0,0,0-7.9,5.93V292.53c-.45-.18-1.32-.46-2.65-.86a14.86,14.86,0,0,0-4.35-.59,9.19,9.19,0,0,0-5.93,1.71m80.18,30.92q-2.12,1.67-2.11,5.35v59.21h15V323.52c-.44-.18-1.32-.46-2.64-.86a15.3,15.3,0,0,0-4.35-.59,9.46,9.46,0,0,0-5.93,1.64M340.16,295a9.25,9.25,0,1,0,6.46-2.63,8.8,8.8,0,0,0-6.46,2.63M373,292.79a6.39,6.39,0,0,0-2.12,5.28v90.2h15V292.53c-.44-.18-1.32-.46-2.64-.86a15,15,0,0,0-4.35-.59,9.17,9.17,0,0,0-5.93,1.71m44.7,24.94v-25.2c-.45-.18-1.33-.46-2.64-.86a15,15,0,0,0-4.35-.59,9.22,9.22,0,0,0-5.94,1.71,6.44,6.44,0,0,0-2.11,5.28v90.2h15V332.46l14.86-28.57Z"
        fill="none"
      />
    </clipPath>
    <linearGradient
      id="textgrad"
      x1="204"
      y1="371.09"
      x2="204"
      y2="293.06"
      gradientUnits="userSpaceOnUse">
      <stop offset="0.14" stop-color="#3c7536" />
      <stop offset="1" stop-color="#9dd115" />
    </linearGradient>
    <clipPath id="btop" transform="translate(-23.55 -46.08)">
      <path
        d="M47.68,323.19a26.81,26.81,0,0,0-9.1,7.18v22.2A22.53,22.53,0,0,1,40,346.73a21.41,21.41,0,0,1,4.15-6.86,18.71,18.71,0,0,1,6.4-4.55,20.57,20.57,0,0,1,8.37-1.65,21.41,21.41,0,0,1,4,.37V320.27c-.64,0-1.29,0-1.94,0a28.84,28.84,0,0,0-13.32,3"
        fill="none"
      />
    </clipPath>
    <linearGradient
      id="bgrad"
      x1="-829.97"
      y1="677.47"
      x2="-827.72"
      y2="677.47"
      gradientTransform="matrix(18.61, 0, 0, -18.61, 15464.24, 12944.24)"
      xlink:href="#treegrad"
    />
    <clipPath id="htop" transform="translate(-23.55 -46.08)">
      <path
        d="M274,310.7v46.38h0v-4.29q0-8.57,4.54-13.78T292,333.8a24.18,24.18,0,0,1,6.29.74V320.18q-1.33-.09-2.73-.09-8.44,0-13.72,2.77a25.57,25.57,0,0,0-7.9,5.93V310.7Z"
        fill="none"
      />
    </clipPath>
    <linearGradient
      id="hgrad"
      x1="-822.99"
      y1="676.82"
      x2="-820.74"
      y2="676.82"
      gradientTransform="matrix(18.61, 0, 0, -18.61, 15569.53, 12929.73)"
      xlink:href="#treegrad"
    />
  </defs>
  <title>birchill</title>
  <circle cx="195.79" cy="103.97" r="103.97" fill="white" />
  <g fill="url(#treegrad)">
    <path
      d="M296,140.74a2.12,2.12,0,0,1-.66-.11,2,2,0,0,1-1.4-1.94V82.58A1.86,1.86,0,0,1,295,80.66a2,2,0,0,1,.73-.13,2,2,0,0,1,1.53.69,101.68,101.68,0,0,1,19.32,32,2.09,2.09,0,0,1-.29,2l-18.69,24.69A2.08,2.08,0,0,1,296,140.74Z"
      transform="translate(-23.55 -46.08)"
    />
    <path
      d="M227.26,253.72a2.27,2.27,0,0,1-1.45-.55,2,2,0,0,1-.68-1.47c-1.06-40.24-4.68-111.38-17-138.68a2.05,2.05,0,0,1-.15-1.2c3.24-18.19,5-35.16,5-47.8V48.25a2.08,2.08,0,0,1,2-2.08c1.62-.07,3.11-.09,4.54-.09a104.65,104.65,0,0,1,18.28,1.63,2.05,2.05,0,0,1,1.7,2v47.6c0,46.06,4.8,104.56,12.23,149.73a2,2,0,0,1-1.42,2.29,103.46,103.46,0,0,1-22.93,4.37Z"
      transform="translate(-23.55 -46.08)"
    />
    <path
      d="M265.61,243a2.09,2.09,0,0,1-.94-.22,2.06,2.06,0,0,1-1.09-1.51c-4.25-26.7-7.55-56.83-9.53-88.11a2.07,2.07,0,0,1,0-.43c4.55-31.25,13.95-51.08,23.43-67.85a2,2,0,0,1,1.78-1,1.93,1.93,0,0,1,.53.07,2.06,2.06,0,0,1,1.53,2V232.58a2.08,2.08,0,0,1-.85,1.67,105.7,105.7,0,0,1-13.95,8.51A2,2,0,0,1,265.61,243Z"
      transform="translate(-23.55 -46.08)"
    />
    <path
      d="M171.17,196.22a2.09,2.09,0,0,1-1.51-.65c-12.24-13.17-20.48-32.49-22.71-38.1a2.18,2.18,0,0,1-.14-.76V76.59a2.17,2.17,0,0,1,.47-1.54,2.08,2.08,0,0,1,2-.55,2.39,2.39,0,0,1,1.6,1.49L161,110.4a303,303,0,0,1,12.27,83.76,2.06,2.06,0,0,1-1.3,1.92A2,2,0,0,1,171.17,196.22Z"
      transform="translate(-23.55 -46.08)"
    />
    <path
      d="M254.15,100.6a2,2,0,0,1-.42,0,2.06,2.06,0,0,1-1.64-2V54.21a2.09,2.09,0,0,1,.87-1.68,2.06,2.06,0,0,1,1.84-.2,104.33,104.33,0,0,1,19.33,9.26,2.06,2.06,0,0,1,.7,2.79l-2.22,3.77c-5.26,8.9-11.21,19-16.58,31.22A2.06,2.06,0,0,1,254.15,100.6Z"
      transform="translate(-23.55 -46.08)"
    />
    <path
      d="M295.71,219.71a2,2,0,0,1-2.06-2.05V165.82a2,2,0,0,1,.43-1.25l24.4-31.79a2.06,2.06,0,0,1,1.63-.8,2.2,2.2,0,0,1,.5.06,2.07,2.07,0,0,1,1.53,1.67,106.91,106.91,0,0,1,1.16,16.34,103.6,103.6,0,0,1-26.06,69A2,2,0,0,1,295.71,219.71Z"
      transform="translate(-23.55 -46.08)"
    />
    <path
      d="M132.22,205.15a2,2,0,0,1-1.75-1,104.38,104.38,0,0,1-.22-107.79,2,2,0,0,1,1.75-1,2.16,2.16,0,0,1,.56.08,2,2,0,0,1,1.5,2l.22,105.66a2.07,2.07,0,0,1-1.5,2A2.15,2.15,0,0,1,132.22,205.15Z"
      transform="translate(-23.55 -46.08)"
    />
    <path
      d="M171.17,242a2.12,2.12,0,0,1-1-.24,104.36,104.36,0,0,1-22.75-16.52,2,2,0,0,1-.63-1.49V192.62a2.06,2.06,0,0,1,3.76-1.15c6.85,10.2,14.16,17.86,21.72,22.77a2,2,0,0,1,.93,1.72v24a2.05,2.05,0,0,1-1,1.76A2.08,2.08,0,0,1,171.17,242Z"
      transform="translate(-23.55 -46.08)"
    />
    <path
      d="M184.24,150.78a2.06,2.06,0,0,1-1.9-1.74,316.77,316.77,0,0,0-9.3-42.19l-12-41a2.19,2.19,0,0,1,.81-2.39A103.28,103.28,0,0,1,198,48.26a2.09,2.09,0,0,1,.43,0,2.16,2.16,0,0,1,1.29.55,2,2,0,0,1,.76,1.59V64c0,22.39-5.66,56.67-14.09,85.29a2.06,2.06,0,0,1-2,1.48Z"
      transform="translate(-23.55 -46.08)"
    />
    <path
      d="M210.21,253.65a104.92,104.92,0,0,1-23.06-4.7,2.08,2.08,0,0,1-1.42-2l.1-51.19c0-2.71-.05-5.57-.13-8.74a2,2,0,0,1,.22-1c5-9.75,10-23.34,14.29-39.29a2.06,2.06,0,0,1,2-1.52h.11a2,2,0,0,1,1.92,1.71c5.81,34.57,7.67,84.54,8.22,104.57a2,2,0,0,1-2.05,2.12Z"
      transform="translate(-23.55 -46.08)"
    />
  </g>
  <!-- birchill text -->
  <g clip-path="url(#textoutline)">
    <rect y="244.99" width="409.88" height="99.03" fill="url(#textgrad)" />
    <g clip-path="url(#btop)">
      <rect
        x="36.86"
        y="318.97"
        width="27.8"
        height="34.85"
        transform="translate(-60.55 -38.38) rotate(-6.37)"
        fill="url(#bgrad)"
      />
    </g>
    <g clip-path="url(#htop)">
      <rect
        x="271.46"
        y="309.49"
        width="29.36"
        height="48.8"
        transform="translate(-58.82 -12.28) rotate(-6.37)"
        fill="url(#hgrad)"
      />
    </g>
  </g>
</svg>
