<svg xmlns="http://www.w3.org/2000/svg"
  viewBox="0 0 561.3 121.9" width="100%" height="100%">
  <title>Birchill</title>
  <defs>
    <linearGradient id="treegrad" x1="0" x2="0" y1="152.54" y2="31.74"
      gradientUnits="userSpaceOnUse">
      <stop offset="0" stop-color="#497234" />
      <stop offset="1" stop-color="#9ec33d" />
    </linearGradient>
    <linearGradient id="textgrad" x1="-792.75" x2="-790.48" y1="0" y2="0"
      gradientUnits="userSpaceOnUse"
      gradientTransform="matrix(0 -31.7186 -31.7186 0 17758.83 -25008.75)">
      <stop offset="0" stop-color="#497234" />
      <stop offset="1" stop-color="#9ec33d" />
    </linearGradient>
    <linearGradient id="bgrad"
      x1="-758.19" x2="-755.97" y1="0" y2="0"
      gradientUnits="userSpaceOnUse"
      gradientTransform="scale(18.6102 -18.6102) rotate(6.37 4969.55 7180.9)">
      <stop offset="0" stop-color="#4b7334" />
      <stop offset="1" stop-color="#a0c314" />
    </linearGradient>
    <linearGradient id="hgrad"
      x1="-751.34" x2="-749.12" y1="0" y2="0"
      gradientUnits="userSpaceOnUse"
      gradientTransform="scale(18.6102 -18.6102) rotate(6.37 4972.36 7231.5)">
      <stop offset="0" stop-color="#4b7334" />
      <stop offset="1" stop-color="#9fc43e" />
    </linearGradient>
    <clipPath id="textoutline">
      <path fill="none" d="M181.4 95.6c-2.5-1-4.6-2.5-6.4-4.3-1.8-1.8-3.2-4-4.2-6.7-1-2.6-1.5-5.5-1.5-8.6 0-3 .5-5.7 1.5-8.4 1-2.6 2.4-4.9 4.1-6.8 1.7-1.9 3.9-3.4 6.3-4.5 2.5-1.1 5.2-1.6 8.3-1.6 3 0 5.7.5 8.2 1.6s4.6 2.6 6.4 4.4c1.8 1.9 3.2 4.1 4.1 6.7 1 2.6 1.4 5.4 1.4 8.5 0 3-.5 5.9-1.4 8.4-1 2.6-2.3 4.8-4.1 6.7-1.8 1.9-3.9 3.4-6.4 4.4a20 20 0 01-8.2 1.6c-2.9.2-5.6-.4-8.1-1.4m-24.7-81.3c-1.4 1.1-2.1 2.9-2.1 5.2v53.4c0 6.4.9 11.9 2.6 16.6 1.7 4.7 4.2 8.6 7.3 11.8 3.1 3.1 6.9 5.5 11.2 7 4.3 1.6 9 2.4 14.2 2.4 5.1 0 9.9-.9 14.2-2.6 4.3-1.7 8-4.1 11.2-7.2 3.1-3 5.6-6.7 7.3-11 1.7-4.3 2.6-8.9 2.6-13.8 0-5-.8-9.7-2.5-13.9-1.7-4.2-4-7.9-7.1-11-3-3.1-6.5-5.5-10.6-7.2-4-1.7-8.5-2.5-13.3-2.5-5 0-9.4 1-13.2 2.9-3.8 2-6.8 4.3-9 7.1V14c-.4-.2-1.3-.5-2.6-.8-1.3-.4-2.7-.6-4.3-.6-2.6 0-4.5.5-5.9 1.7m83.8 30.6c-1.4 1.1-2.1 2.9-2.1 5.3v58.6h14.9V44.7c-.4-.2-1.3-.5-2.6-.8-1.3-.4-2.7-.6-4.3-.6-2.5-.1-4.5.5-5.9 1.6m-1-28.4a8.83 8.83 0 00-2.6 6.4c0 2.5.9 4.7 2.6 6.4 1.7 1.7 3.9 2.6 6.4 2.6 2.5 0 4.7-.9 6.4-2.6 1.7-1.7 2.6-3.9 2.6-6.4 0-2.5-.9-4.7-2.6-6.4a8.83 8.83 0 00-6.4-2.6c-2.6 0-4.7.8-6.4 2.6M276.6 48c-4.9 4.4-7.4 10.6-7.4 18.6v42.2h14.9V70.9c0-10.8 5.1-16.2 15.3-16.2 2.8 0 5.3.3 7.4.9 2.2.6 4 1.3 5.5 2 .5-.3 1.2-1.2 2-2.6.8-1.4 1.2-2.8 1.2-4.3 0-3.1-1.7-5.5-5.2-7-3.4-1.5-7.9-2.3-13.4-2.3-8.6 0-15.4 2.2-20.3 6.6m64.8-4.3c-4.4 1.5-8.2 3.8-11.4 6.7-3.2 3-5.7 6.6-7.6 11a38.8 38.8 0 00-2.7 14.9c0 5.6.9 10.5 2.8 14.7 1.9 4.3 4.4 7.9 7.6 10.8 3.2 2.9 7 5.1 11.2 6.6a41 41 0 0013.7 2.2c3.1 0 5.9-.2 8.4-.7 2.5-.4 4.7-1 6.7-1.6 2-.7 3.7-1.4 5.2-2.1 1.5-.7 2.8-1.5 3.9-2.2l-6.3-11c-1 .6-2.8 1.5-5.4 2.7-2.7 1.2-6.2 1.8-10.5 1.8-3 0-5.9-.4-8.5-1.2-2.6-.8-4.9-2.1-6.9-3.8-2-1.7-3.6-4-4.7-6.7s-1.7-6-1.7-9.8c0-3.7.5-6.8 1.6-9.5s2.6-4.9 4.4-6.7c1.9-1.8 4.1-3.1 6.7-4 2.6-.9 5.3-1.3 8.3-1.3 4.3 0 8 .7 11 2s5.2 2.8 6.8 4.2c1-.8 2.2-1.9 3.3-3.4 1.2-1.5 1.8-3.1 1.8-4.8 0-1.3-.4-2.6-1.2-3.9-.8-1.3-2.2-2.5-4-3.5-1.9-1-4.3-1.9-7.3-2.6-3-.7-6.6-1-10.9-1-5.2-.1-9.9.7-14.3 2.2m48.3-29.4c-1.4 1.1-2.1 2.9-2.1 5.2v89.3h14.9V73.7c0-5.7 1.5-10.2 4.5-13.6 3-3.4 7.5-5.2 13.4-5.2 5.8 0 9.9 1.5 12.3 4.4 2.4 3 3.6 7.3 3.6 13.1v36.4h14.9V67.9c0-4.4-.7-8.3-2-11.6-1.3-3.3-3.2-6.1-5.6-8.3-2.4-2.2-5.3-3.9-8.7-5-3.4-1.1-7-1.7-11-1.7-5.6 0-10.1.9-13.6 2.7-3.5 1.8-6.1 3.8-7.8 5.9V14c-.4-.2-1.3-.5-2.6-.8-1.3-.4-2.7-.6-4.3-.6-2.5 0-4.5.5-5.9 1.7m79.4 30.6c-1.4 1.1-2.1 2.9-2.1 5.3v58.6h14.9V44.7c-.4-.2-1.3-.5-2.6-.8-1.3-.4-2.7-.6-4.3-.6-2.5-.1-4.5.5-5.9 1.6m-1-28.4a8.83 8.83 0 00-2.6 6.4c0 2.5.9 4.7 2.6 6.4 1.7 1.7 3.9 2.6 6.4 2.6 2.5 0 4.7-.9 6.4-2.6 1.7-1.7 2.6-3.9 2.6-6.4 0-2.5-.9-4.7-2.6-6.4a8.83 8.83 0 00-6.4-2.6c-2.6 0-4.7.8-6.4 2.6m32.5-2.2c-1.4 1.1-2.1 2.9-2.1 5.2v89.3h14.9V14c-.4-.2-1.3-.5-2.6-.8-1.3-.4-2.7-.6-4.3-.6-2.6 0-4.5.5-5.9 1.7m44.2 24.6V14c-.4-.2-1.3-.5-2.6-.8-1.3-.4-2.7-.6-4.3-.6-2.5 0-4.5.6-5.9 1.7-1.4 1.1-2.1 2.9-2.1 5.2v89.3h14.9V53.5l14.7-28.3-14.7 13.7z" />
    </clipPath>
    <clipPath id="bshadow">
      <path fill="none" d="M178.5 44.4c-3.8 2-6.8 4.3-9 7.1v22c.2-2 .7-3.9 1.4-5.8 1-2.6 2.4-4.9 4.1-6.8 1.7-1.9 3.9-3.4 6.3-4.5 2.5-1.1 5.2-1.6 8.3-1.6 1.4 0 2.7.1 4 .4V41.5h-1.9c-5-.1-9.4.9-13.2 2.9"/>
    </clipPath>
    <clipPath id="hshadow">
      <path fill="none" d="M402.5 32v45.9-4.2c0-5.7 1.5-10.2 4.5-13.6 3-3.4 7.5-5.2 13.4-5.2 2.4 0 4.4.2 6.2.7V41.4c-.9-.1-1.8-.1-2.7-.1-5.6 0-10.1.9-13.6 2.7-3.5 1.8-6.1 3.8-7.8 5.9V32z"/>
    </clipPath>
  </defs>
  <g id="logo" fill="url(#treegrad)">
    <circle fill="#FFF" cx="61.2" cy="61" r="60.3" />
    <path d="M105.7 55.6c-.1 0-.3 0-.4-.1-.5-.2-.8-.6-.8-1.1V21.9c0-.5.2-.9.6-1.1.1-.1.3-.1.4-.1.3 0 .7.1.9.4 4.9 5.5 8.7 11.8 11.2 18.6.1.4.1.8-.2 1.2l-10.8 14.3c-.2.3-.6.4-.9.4z" />
    <path d="M65.8 121.2c-.3 0-.6-.1-.8-.3-.2-.2-.4-.5-.4-.9-.6-23.4-2.7-64.6-9.8-80.5-.1-.2-.1-.5-.1-.7 1.9-10.6 2.9-20.4 2.9-27.7V2c0-.6.5-1.2 1.1-1.2.9 0 1.8-.1 2.6-.1 3.5 0 7.1.3 10.6.9.6.1 1 .6 1 1.2v27.6c0 26.7 2.8 60.7 7.1 86.9.1.6-.3 1.2-.8 1.3-4.4 1.4-8.8 2.3-13.4 2.6z" />
    <path d="M88 115c-.2 0-.4 0-.5-.1-.3-.2-.6-.5-.6-.9-2.5-15.5-4.4-33-5.5-51.1v-.2C84 44.6 89.5 33.1 95 23.3c.2-.4.6-.6 1-.6h.3c.5.1.9.6.9 1.2V109c0 .4-.2.7-.5 1-2.6 1.9-5.3 3.5-8.1 4.9-.2 0-.4.1-.6.1z" />
    <path d="M33.2 87.8c-.3 0-.6-.1-.9-.4-7.1-7.6-11.9-18.9-13.2-22.1-.1-.1-.1-.3-.1-.4V18.4c0-.3.1-.7.3-.9.2-.2.5-.4.9-.4h.3c.4.1.8.5.9.9l5.9 20c4.6 15.8 7 32.1 7.1 48.6 0 .5-.3.9-.8 1.1-.1.1-.2.1-.4.1z" />
    <path d="M81.4 32.3h-.2c-.6-.1-.9-.6-.9-1.2V5.4c0-.4.2-.8.5-1 .2-.1.4-.2.7-.2.1 0 .3 0 .4.1 3.9 1.4 7.7 3.2 11.2 5.4.6.3.7 1.1.4 1.6-.4.7-.9 1.4-1.3 2.2-3 5.2-6.5 11-9.6 18.1-.3.5-.8.7-1.2.7z" />
    <path d="M105.5 101.5c-.1 0-.3 0-.4-.1-.5-.2-.8-.6-.8-1.1V70.2c0-.3.1-.5.2-.7L118.7 51c.2-.3.6-.5.9-.5h.3c.5.1.8.5.9 1 .5 3.1.7 6.3.7 9.5 0 14.8-5.3 29-15.1 40-.2.3-.6.5-.9.5z" />
    <path d="M10.6 93c-.4 0-.8-.2-1-.6C3.9 83 .8 72.2.8 61.2c0-11.1 2.9-21.9 8.6-31.3.2-.4.6-.6 1-.6h.3c.5.1.9.6.9 1.1l.1 61.3c0 .5-.4 1-.9 1.1 0 .2-.1.2-.2.2z" />
    <path d="M33.2 114.4c-.2 0-.4 0-.6-.1-4.8-2.6-9.3-5.8-13.2-9.6-.2-.2-.4-.5-.4-.9V85.7c0-.5.3-1 .8-1.1.1 0 .2-.1.3-.1.4 0 .8.2 1 .5 4 5.9 8.2 10.4 12.6 13.2.3.2.5.6.5 1v13.9c0 .4-.2.8-.6 1 0 .2-.2.3-.4.3z" />
    <path d="M40.8 61.5c-.6 0-1-.5-1.1-1-1.2-8.3-3.1-16.5-5.4-24.5l-7-23.8c-.1-.5 0-1.1.5-1.4 6.4-4.3 13.5-7.2 21-8.8h.2c.3 0 .5.1.8.3.3.2.4.6.4.9v7.9c0 13-3.3 32.9-8.2 49.5-.1.5-.6.9-1.2.9.1 0 0 0 0 0z" />
    <path d="M55.9 121.1c-4.5-.4-9.1-1.3-13.4-2.7-.5-.2-.8-.6-.8-1.1l.1-29.7c0-1.6 0-3.2-.1-5.1 0-.2 0-.4.1-.6 2.9-5.7 5.8-13.5 8.3-22.8.1-.5.6-.9 1.1-.9h.1c.6 0 1 .4 1.1 1 3.4 20.1 4.4 49.1 4.8 60.7 0 .3-.1.7-.4.9-.2.2-.5.3-.8.3 0 .1-.1.1-.1 0z" />
  </g>
  <g clip-path="url(#textoutline)">
    <path fill="url(#textgrad)" d="M154 12h406v99H154z"/>
    <g clip-path="url(#bshadow)">
      <path fill="url(#bgrad)" d="M166 41.8l27.3-3 3.8 34.2-27.3 3.1z"/>
    </g>
    <g clip-path="url(#hshadow)">
      <path fill="url(#hgrad)" d="M397.5 32.6l28.9-3.3 5.3 48-28.9 3.3z"/>
    </g>
  </g>
</svg>
