<svg xmlns="http://www.w3.org/2000/svg" viewBox="0 0 750 500">
  <style>
    .st6,.st7{opacity:.15;fill:#fff}.st7{opacity:.2}.st9{fill:#d7edf8}.st11{fill:#0b580a}.st13{fill:#5a961c}.st14{fill:#4d801b}.st15{fill:#64a61e}.st18{fill:#9bd135}.st19{fill:#3f710e}.st23{fill:#0f5614}.st25{fill:#71b122}.st32{fill:#73a92f}.st33{fill:#e6d100}.st34{fill:#d4b000}.st35{fill:#4e8214}.st37{fill:#97ce35}.st39{fill:#b44c49}.st41{fill:#9c4240}.st42{fill:#e5e5e5}.st44{fill:#b2b2b2}.st45{fill:#6d2e2e}.st46{fill:none;stroke:#6d2e2e;stroke-linecap:round;stroke-linejoin:round;stroke-miterlimit:10}.st48{fill:#fff}.st49{fill:#f5fbfd}
  </style>
  <g>
    <g>
      <path fill="#34e8ff" d="M0 0h750v500H0z"/>
      <path fill="#6feefe" d="M0 263.8v58.5h750V205.2s-394.1-4.5-750 58.6z"/>
      <path fill="#61e6f9" d="M0 173.5c266.9-26.9 750-25 750-25v9.7s-8.8 42.1-21.8 42.3c-22.3.3-324 .9-346 1.5C347.6 203 0 203.3 0 203.3v-29.8"/>
      <path fill="#49daf1" d="M0 104.7c178-23 750-21.4 750-21.4v48.8c-44.6.8-335.2 1.7-379.2 3.3C301.5 137.9 0 138.6 0 138.6v-33.9"/>
      <path fill="#44d8ef" d="M0 49c89-15.8 750-14.6 750-14.6v14.1L0 89.4V49"/>
      <path fill="#36d0ea" d="M0 0h750v12.6s-263.3 5.9-402 12.8c-138.7 7-348 8.9-348 8.9V0"/>
    </g>
    <g>
      <path d="M720.8 0L595.9 316.7h-93L669.4 0z" class="st6"/>
      <path d="M613.2 0L468.3 316.7H280.5L454.7 0z" class="st6"/>
      <path d="M579.5 0L436.3 316.7h-56.9L548.7 0z" class="st7"/>
      <path d="M510.1 0L345.7 316.7h-28.3L494.4 0z" class="st7"/>
      <path d="M370 0L208.3 316.7h-49L345.6 0z" class="st6"/>
      <path d="M199.6 0L23.2 316.7H0V216.5L141.4 0z" class="st6"/>
    </g>
    <g>
      <g>
        <linearGradient id="XMLID_60_" x1="83.9" x2="132.2" y1="140.6" y2="226.4" gradientUnits="userSpaceOnUse">
          <stop offset="0" stop-color="#58cee8"/>
          <stop offset="1" stop-color="#45a4d4"/>
        </linearGradient>
        <path fill="url(#XMLID_60_)" d="M1.1 195.8l1.6-1.8c1.7-2 4.8-2.1 6.6-.3a4.5 4.5 0 006.5-.2L43.5 163c1.7-1.8 4.5-2 6.3-.3l23.3 21a4.4 4.4 0 004.4.9l5.5-1.8c1.5-.5 3.1-.2 4.3.8l13.6 11.1c1.6 1.3 4 1.4 5.7 0l10.6-8.5a4.5 4.5 0 015.8.1l35 30.5a4.6 4.6 0 006 0l26.9-24.2a4.5 4.5 0 016.4.4l17.8 20.5c1.4 1.6 3.8 2 5.7.9l6.8-3.9c1.6-.9 3.5-.8 5 .3l94.7 71.3H0v-83.6c0-.9.4-1.9 1.1-2.7z"/>
        <path d="M14.7 208.3l-3.8-3.8s7.2.4 8-1.9c.8-2.3 0-5.7 0-5.7l25.4-6.4-12.2-3s8-8 9.5-12.5c1.3-3.9 2.1-11.9 4.2-13.3a5 5 0 00-2.2 1.3l-27.7 30.5a4.5 4.5 0 01-6.5.2 4.5 4.5 0 00-6.6.3l-1.6 1.8c-.7.8-1.1 1.9-1.1 2.9v19.1l3.3-9.5h11.3z" class="st9"/>
        <path d="M83.2 189.7c3.3-.4 0-4.2 0-4.2l4.2-2a4.5 4.5 0 00-4.3-.8l-5.5 1.8c-1.3.4-2.7.2-3.9-.5l4.7 3.6v5.4s1.5-2.8 4.8-3.3z" class="st9"/>
        <g>
          <path d="M121 210.5s-5.1-10-5.5-12.9c-.4-2.9 5.5 0 5.5 0l-2-4.6s.9-9.4 5.7-5.3l-1.6-1.4a4.5 4.5 0 00-5.8-.1l-10.6 8.5a4.5 4.5 0 01-5.2.3l19.5 15.5z" class="st9"/>
          <path d="M99 193z" class="st9"/>
        </g>
        <path d="M186.9 238.4l10.2-2.9-13.9-5.5s16.7-7.8 20.8-9.5c4.1-1.7-24.1 0-24.1 0s8.4-2.7 7.1-4.1c-1.4-1.4-6.9-4-6.9-4l11.6-7s-4.1-2-2-5.5c1.9-3.2 4.5-9.4 7.2-7.4a4.5 4.5 0 00-5.9.1l-27 24.3a4.7 4.7 0 01-4.5.9l27.4 20.6z" class="st9"/>
        <path d="M221.4 217.1s-2.7 3.1-2.7 3.6 6.8-1.1 8.6-1.8c1.8-.7 1-3.6 1.9-4.5.8-.9 1.2-5.2 5.5-2l-2-1.5a4.5 4.5 0 00-5-.3l-6.8 3.9a3 3 0 01-1 .4h-.1l-1.6.2c-1.8.2-3.8.5-3.2 1.2 1 .9 6.4.8 6.4.8z" class="st9"/>
      </g>
      <g>
        <linearGradient id="XMLID_61_" x1="595.6" x2="615.7" y1="218.1" y2="268" gradientUnits="userSpaceOnUse">
          <stop offset="0" stop-color="#58cee8"/>
          <stop offset="1" stop-color="#45a4d4"/>
        </linearGradient>
        <path fill="url(#XMLID_61_)" d="M748.7 185.9l-15.2-14a3.9 3.9 0 00-5.4.1l-44.9 44.4a4 4 0 01-5.9-.4l-8.9-11.4a4 4 0 00-5.8-.5 3.9 3.9 0 01-5.6-.3l-8.3-9.4a4 4 0 00-5.5-.4l-35.8 30.3a4 4 0 01-5.2-.1l-6-5.5a4 4 0 00-5-.3l-122.5 90.4c-3.1 2.2-1.5 7.1 2.3 7.1h274.9c2.2 0 3.9-1.8 3.9-3.9V188.8c.2-1.1-.3-2.1-1.1-2.9z"/>
        <path d="M733.5 171.9a3.9 3.9 0 00-5.4.1l-44.9 44.4-3.1 3.1-15.6 14.5s20.6-9.2 28.1-11.4c7.1-2.1 22.1-5.6 20.5-6.1l-8.1-2.9s8-.8 8.2-2.9c.1-2.1-4-4.9-4-4.9s16.9-2.1 19.5-3.4c2.6-1.3-12.2-3.9-12.5-7-.3-3.1 15.9-6.5 14.6-10.9-1.3-4.4-.4-7.3.1-9.6.4-2.3 1.1-4.5 6 0l-3.4-3z" class="st9"/>
        <path d="M511.5 284.8s57.4 7.3 58.2 7.6c.8.3 12.5-30.5 12.5-38.2 0-7.7-10.4-2.7-10.4-5.4s-5.7.2-5.7-1c0-1.1 16.6-5.2 16.6-5.2s-8.1-.4-9.9 0c-1.8.4 2.9-3.5 15.3-8.5s6.7-7.1 6.7-7.1-4.8.5-3.5-1.7c1.3-2.1 4.7-7 7.1-4.7l-1.9-1.8a4 4 0 00-5-.3l-81.9 60.4 1.9 5.9z" class="st9"/>
      </g>
      <path d="M597.1 294.5c-12 1.6-24.2 2.6-36.3 1.9-5.7-.3-11.2-1.1-16.8-2.2a70 70 0 01-14.6-5c-5.1-2.1-11.4-2.6-16.7-4.2-11-3.2-21.7-7.5-31.2-14-2.6-1.8-6.2-4.4-7.1-7.7-.8-2.9 2.4-5.9 5-6.9 3.4-1.3 8 .4 8.8 4 .7-1.7 3.8-1.4 4.2.4 1-.7 2.6.2 2.5 1.4.1-1.4 2.1-2.1 3.1-1.1-1.2-1.2-1.4-3.3-.4-4.6 1-1.3 3.1-1.8 4.5-1a6.6 6.6 0 015.5-4 6.4 6.4 0 015.9 3.5c-.8-1.1-.5-2.8.6-3.6s2.8-.5 3.5.7c-.4-1.7.7-3.7 2.4-4.3 1.7-.6 3.7.3 4.5 2 .5-3.1 1.1-6.5 3.5-8.6 2.4-2.1 7.1-1.3 7.6 1.8.7-1.2 1.9-2.3 3.4-2.2 1.4 0 2.7 1.5 2.2 2.8 1.3-1.1 3.5-1 4.6.2a3.4 3.4 0 010 4.6c1.2-.5 2.7-.1 3.4 1 .7 1 .6 2.6-.3 3.5.3-.9 1.3-1.4 2.1-1.2.9.2 1.4 1.2 1.2 2.1a4 4 0 014.7-2.8 4 4 0 013 4.6c.1-1.2 1.2-2.1 2.4-2.2 1.2 0 2.3.9 2.4 2.1-.2-1.9 1.6-3.8 3.5-3.8 2 0 3.7 1.9 3.5 3.9 1.1-1.2 3.5-.6 3.9 1a6.4 6.4 0 016.7-5.4c3.2.3 5.8 3.3 5.6 6.5 1.6-1.5 4.8.1 4.5 2.3a4 4 0 014.8-2.9 4 4 0 012.2 5.2c1.3-.7 3.1.4 3.2 1.8.8-2 4.5-1 4.3 1.1a3.5 3.5 0 013.4-3.1c1.7 0 3.3 1.3 3.5 3 .3-2 1.8-3.8 3.8-4.3 2-.5 4.2.2 5.4 1.8-.6-.6.3-1.5 1.1-1.8 3.7-1.1 7.9 1 9.8 4.4 1.9 3.4 1.6 7.7 0 11.2a22.7 22.7 0 01-7.7 8.6 63 63 0 01-29.1 9.5z" class="st11"/>
      <path fill="#39530a" d="M272.6 281.4c3.3-1.8 6.8-4.4 7.1-8.1a6.3 6.3 0 00-3.1-5.9 6.5 6.5 0 00-6.7.5c-1-2.5-5-3.1-6.7-.9 1-2.6-.8-6-3.6-6.5-2.8-.6-5.8 1.8-5.9 4.6a4.1 4.1 0 00-3.5-3.3 4 4 0 00-4 2.7c-.3-1.5-.6-3.1-1.8-4.1-1.1-1-3.3-1-3.9.4.2-1.6-.6-3.3-2-4.1a4 4 0 00-4.5.6c2.5-2.9.2-8.3-3.7-8.4-3.8-.1-6.5 5.2-4.1 8.2-1.1-1.7-4-1.9-5.3-.3l.1 1.8c-.6-1.4-2.6-1.9-3.8-1-1.2.9-1.3 2.9-.2 3.9-.8-2.1-3.8-3.1-5.7-1.8.6-1.6.7-3.6-.3-5s-3.5-1.8-4.5-.4c.4-.9-.7-1.8-1.7-1.7-1 .1-1.7.8-2.4 1.5.7-1.7-1.5-3.5-3.2-2.8-1.7.7-2.3 2.9-1.6 4.6-1.4-1.5-4.2-1.5-5.5.2.3-1.6-2.1-2.8-3.5-1.9-1.4.9-1.7 2.9-1.3 4.5a5.6 5.6 0 00-6.5-.4 5.5 5.5 0 00-2 6.2c1.2 3.4 5.3 3.7 8.5 5.2 9.1 4.4 18.4 8.5 27.8 12 9.4 3.6 18.1 8.7 28.5 8.5a61.4 61.4 0 0029-8.8z"/>
      <path d="M56.3 265.7c-1-2.9-2.4-5.8-2.1-8.9.2-1.9 1-3.7 1.1-5.6.1-2-.7-3.7-2.4-4.7-.8-.4-1.6-.7-2.5-.8-.2 0-2.4 0-2.4.4 0-.8-.6-1.6-1.3-2-.7-.4-1.6-.5-2.4-.4-1.4.1-2.7.7-3.7 1.6-.2-.8-1-1.2-1.8-1.1s-1.5.5-2.1 1c.5-.9-.3-2.2-1.3-2.4-1-.2-2.1.3-2.8 1.1.2-1.3-.1-2.7-.8-3.7-.9-1.3-2.1-1.4-3.6-1.4-1.4 0-2.7.2-3.9.8-1.2.7-2.1 1.9-2 3.3.1-1.3-1.4-2.3-2.7-2.2a7 7 0 00-3.4 2c.4-1.3-.8-2.7-2.1-3.1s-2.7 0-4.1.4c.4-1.1.9-2.3.9-3.5 0-1.2-.6-2.5-1.7-3a3.6 3.6 0 001.8-4.8c-.8-1.5-3.1-2.3-4.8-1.8-1.6.5-2.1 1.8-3 3.1-.8 1.2-3 0-3 0v85.9l3.9-1.6c19.6-4 38.7-10.5 57-18.4-2.8-9.9-1.5-20.6-4.8-30.2z" class="st11"/>
      <g>
        <path d="M0 293.3c42 3.4 196.6-2.3 248.4-13.8 51.8-11.5 102.3-30.8 164.9-27.8 66.6 3.2 211.2 53.3 235.8 65.7H0v-24.1z" class="st13"/>
        <path d="M287.6 262.2c.1 0 .1 0 0 0-.4.1-.9.2-1.2.6-.4.5-.1 1.3.5 1.5-.5 0-.9.4-.9.9s.5.9 1 .8c-.4-.1-.8.2-.9.7 0 .4.4.8.8.8-.6-.1-1.3.1-1.8.5s-.8 1.1-.6 1.7c.2.7.9.9 1.5.9-.3.6-.4 1.3-.1 1.9.3.6 1.1.9 1.6.5-.4.3-.4 1-.1 1.4.3.4.9.5 1.4.2l.8-.5c.4-.1.8.2 1.3.4 1.1.4 2.4-.1 2.8-1.2.7 1 2.5 1 3.1 0 .7-1-.3-2.7-1.5-2.5.3-.5.9-1.3.6-2-.3-.4-.9-.6-1.3-.3.2-.5 0-1.2-.5-1.4.4-.1.8-.4.9-.8.1-.4-.2-.9-.7-.9.5-.4 1.1-1 1-1.7-.1-.5-.5-.9-1-1-.5-.1-1-.1-1.5.1.2-.7-.2-1.5-.8-1.7.4-.3.9-.8.7-1.2-.1-.3-.6-.5-.9-.5.4-.2.5-.7.4-1.1-.2-.4-.6-.6-1-.5.3-.7-.4-2.4-1.4-1.9-.3.1-.4.5-.4.9s0 .8.2 1.2c-.3-.3-.7-.2-1 0-.3.3-.3.7-.1 1 .2.3.5.5.9.6l-1.4.4c-.4.2-1 .7-1 1.2-.2.2.2.7.6 1z" class="st14"/>
        <path d="M312.6 279.5c15.8 6.8 57.7-1.3 71.6-3.9 14-2.6-4.9 6.4 1.2 10.3 6 3.9 43.5-12.1 67.3-15.1 23.7-3 54.2-1.2 54.5-1.1-35.2-9.5-69.7-16.8-93.9-17.9a316.3 316.3 0 00-78.1 6.7c-22.7 8.6-38.4 14.2-22.6 21z" class="st15"/>
        <path fill="#51841b" d="M542.8 279.8c-43.5 13.4-87.5 27.2-138.3 27.2-50.1 0-112.7-9.7-146.6-29.7l-9.5 2.2C196.6 291 42 296.7 0 293.3v24h649.1c-12.6-6.3-57.1-22.7-106.3-37.5z"/>
      </g>
      <g>
        <path d="M0 261.5s41.8-18.5 88-18.4a303 303 0 01124.5 28c35.9 16.3 93.7 41.7 112.4 44.8H0v-54.4z" class="st15"/>
        <path fill="#72b124" d="M84.8 243.1h-2.6l-1.7.1h-.8l-2.4.1h-.2l-2.3.1-.8.1-1.7.1-.8.1-1.7.2-.7.1-2.4.2h-.3l-2.1.2-.8.1-1.6.2-.8.1-1.6.2-.7.1-2.3.3-.4.1-1.9.3-.8.1-1.5.3-.8.1-1.6.3-.6.1-2.1.4-.4.1-1.7.4-.7.1-1.4.3-.7.2-1.6.3-.5.1-2 .5-.3.1-1.6.4-.6.2-1.4.3-.6.1-1.5.4-.4.1-1.9.5-.2.1-1.6.4-.5.1-1.3.4-.5.1-1.6.5h-.2l-1.7.5-.2.1-1.5.5-.3.1-1.3.4-.3.1-3.1 1c-1.2 3.1 1.9 6 11.2 8.6 32 9 78.5-8.9 97.9-5.7-2.6-.3-21.6 6.3-7.3 8.3 13.2 1.8 74.7.7 153.6 29.8-20.1-8.4-41.6-18-58.4-25.6a304.7 304.7 0 00-124.5-28h-2.5c.1.2-.2.2-.4.2z"/>
        <path d="M0 275.5c30.4 13.2 116.3 18.5 142.2 15.3 21.5-2.7-20.9 12.7-20.9 12.7s87.3 12.3 203.6 12.3H0v-40.3z" class="st13"/>
        <path d="M165.9 257.4c25.1 7.3 81.7 29.3 82.5 29.6l-35.9-16A304.7 304.7 0 0088 243c-46.2 0-88 18.5-88 18.5v4.6s32-12 66.4-17.3c34.5-5.3 74.2 1.3 99.5 8.6z" class="st18"/>
        <path d="M70.4 256.2c-.1 0-2-.4-1.7-.7a2.8 2.8 0 01-4.2-.2l-.3-.3c-.2-.1-.5 0-.7.1-1 .3-2-.8-1.8-1.7-.7.3-1.6-.2-1.7-.9-.2-.7.4-1.5 1.2-1.6-.5-.4-.5-1.2-.2-1.8.3-.6.9-.9 1.5-1.3-.6-.7-1.1-1.7-.7-2.5.5-.9 1.8-.9 2.8-.8-.2-.5-.3-1.1-.3-1.6l.5-.3c-.5-.1-.8-.7-.7-1.2.1-.5.7-.9 1.2-.7-.4-.4-.9-.9-.9-1.4-.2-1.2 1.1-1 1.5-1.8.3-.7-.2-1.8.3-2.4.3-.3.7-.5 1.1-.3-.2-.4-.5-.9-.5-1.3 0-.5.3-1 .7-1.1.5-.1.9.4 1.1.8.2.5.1 1 .2 1.5h1.3c0 .6-.2 1.3.3 1.7.5.4 1.3.3 1.8.8s.7 1.4.2 1.9l-.5.5c-.3.6.7 1.2.7 1.9.1.6-.5 1.2-.2 1.7l.5.4 1.5.7c.4.2.8.4.8.8.1.9-1.4 1-1.6 1.8.5.1 1 .2 1.4.5.4.3.7.9.5 1.3-.1.2-.3.4-.2.6.1.3.4.3.6.5.3.4-.1.9-.6 1.1-.4.2-1 .4-1.1.8.5.2 1 .4 1.3.7.4.3.6.8.6 1.3-.1.7-.7.8-1.2 1.2-.4.4-.6 1-1.1 1.4-1 .5-2.4-.1-3.4-.1z" class="st19"/>
        <path d="M88.5 259.7c0 .1.1.1 0 0-.4.1-.9.2-1.2.6-.4.5-.1 1.3.5 1.5-.5 0-.9.4-.9.9s.5.9 1 .8c-.4-.1-.8.2-.9.7 0 .4.4.8.8.8-.6-.1-1.3.1-1.8.5s-.8 1.1-.6 1.7c.2.7.9.9 1.5.9-.3.6-.4 1.3-.1 1.9.3.6 1.1.9 1.6.5-.4.3-.4 1-.1 1.4.3.4.9.5 1.4.2l.8-.5c.4-.1.8.2 1.3.4 1.1.4 2.4-.1 2.8-1.2.7 1 2.5 1 3.1 0 .7-1-.3-2.7-1.5-2.5.3-.5.9-1.3.6-2-.3-.4-.9-.6-1.3-.3.2-.5 0-1.2-.5-1.4.4-.1.8-.4.9-.8.1-.4-.2-.9-.7-.9.5-.4 1.1-1 1-1.7-.1-.5-.5-.9-1-1-.5-.1-1-.1-1.5.1.2-.7-.2-1.5-.8-1.7.4-.3.9-.8.7-1.2-.1-.3-.6-.5-.9-.5.4-.2.5-.7.4-1.1-.2-.4-.6-.6-1-.5.3-.7-.4-2.4-1.4-1.9-.3.1-.4.5-.4.9s0 .8.2 1.2c-.3-.3-.7-.2-1 0-.3.3-.3.7-.1 1 .2.3.5.5.9.6l-1.4.4c-.4.2-1 .7-1 1.2-.3.3.2.7.6 1z" class="st18"/>
      </g>
      <g>
        <path fill="#3f7619" d="M750 315.9v-77.4c-37-4.4-69.6 5.9-109.5 23-55.2 23.7-104.1 54.4-152.7 54.4H750z"/>
        <path fill="#467e1a" d="M640.5 261.5c-21 9-41.1 19-60.6 28 0 0 10.4-4.2 30.9-7.2s41.9-5.6 38.3-10c-3.6-4.4 7.2-3.5 29.3-1.9A146 146 0 00750 253v-14.5c-37-4.4-69.6 5.8-109.5 23z"/>
        <path fill="#386c10" d="M750 268.2c-48.7 17.4-108.3 13.6-103.6 19.1s30.8 13.2 21.4 17.1c-9.4 3.9-40.4 11.5-79.8 11.5h162v-47.7z"/>
        <path d="M640.5 261.5l-2.7 1.2c1-.4 33.3-11.2 51.5-15.8 18.5-4.7 46.7-6.6 60.7-3.7v-4.7c-37-4.4-69.6 5.8-109.5 23z" class="st15"/>
        <g>
          <path d="M650 268.3c-.1 0-2-.4-1.7-.7a2.8 2.8 0 01-4.2-.2l-.3-.3c-.2-.1-.5 0-.7.1-1 .3-2-.8-1.8-1.7-.7.3-1.6-.2-1.7-.9-.2-.7.4-1.5 1.2-1.6-.5-.4-.5-1.2-.2-1.8.3-.6.9-.9 1.5-1.3-.6-.7-1.1-1.7-.7-2.5.5-.9 1.8-.9 2.8-.8-.2-.5-.3-1.1-.3-1.6l.5-.3c-.5-.1-.8-.7-.7-1.2.1-.5.7-.9 1.2-.7-.4-.4-.9-.9-.9-1.4-.2-1.2 1.1-1 1.5-1.8.3-.7-.2-1.8.3-2.4.3-.3.7-.5 1.1-.3-.2-.4-.5-.9-.5-1.3 0-.5.3-1 .7-1.1.5-.1.9.4 1.1.8.2.5.1 1 .2 1.5h1.3c0 .6-.2 1.3.3 1.7.5.4 1.3.3 1.8.8s.7 1.4.2 1.9l-.5.5c-.3.6.7 1.2.7 1.9.1.6-.5 1.2-.2 1.7l.5.4 1.5.7c.4.2.8.4.8.8.1.9-1.4 1-1.6 1.8.5.1 1 .2 1.4.5.4.3.7.9.5 1.3-.1.2-.3.4-.2.6.1.3.4.3.6.5.3.4-.1.9-.6 1.1-.4.2-1 .4-1.1.8.5.2 1 .4 1.3.7.4.3.6.8.6 1.3-.1.7-.7.8-1.2 1.2-.4.4-.6 1-1.1 1.4-.9.6-2.3 0-3.4-.1z" class="st23"/>
          <path d="M624.5 270.3c.1 0 .1 0 0 0-.4.1-.9.2-1.2.6-.4.5-.1 1.3.5 1.5-.5 0-.9.4-.9.9s.5.9 1 .8c-.4-.1-.8.2-.9.7 0 .4.4.8.8.8-.6-.1-1.3.1-1.8.5s-.8 1.1-.6 1.7c.2.7.9.9 1.5.9-.3.6-.4 1.3-.1 1.9.3.6 1.1.9 1.6.5-.4.3-.4 1-.1 1.4.3.4.9.5 1.4.2l.8-.5c.4-.1.8.2 1.3.4 1.1.4 2.4-.1 2.8-1.2.7 1 2.5 1 3.1 0 .7-1-.3-2.7-1.5-2.5.3-.5.9-1.3.6-2-.3-.4-.9-.6-1.3-.3.2-.5 0-1.2-.5-1.4.4-.1.8-.4.9-.8.1-.4-.2-.9-.7-.9.5-.4 1.1-1 1-1.7-.1-.5-.5-.9-1-1-.5-.1-1-.1-1.5.1.2-.7-.2-1.5-.8-1.7.4-.3.9-.8.7-1.2-.1-.3-.6-.5-.9-.5.4-.2.5-.7.4-1.1-.2-.4-.6-.6-1-.5.3-.7-.4-2.4-1.4-1.9-.3.1-.4.5-.4.9s0 .8.2 1.2c-.3-.3-.7-.2-1 0-.3.3-.3.7-.1 1 .2.3.5.5.9.6l-1.4.4c-.4.2-1 .7-1 1.2-.2.2.2.7.6 1z" class="st15"/>
        </g>
      </g>
      <g>
        <path fill="#87bb2b" d="M0 315.9h750V500H0z"/>
        <path d="M750 338.7S480 321.2 266.4 500H750V338.7z" class="st25"/>
        <path d="M0 338.7s611.4 9.4 735.6 161.3H0V338.7z" class="st25"/>
        <path fill="#afea44" d="M0 315.9h750v6.2H0z"/>
        <linearGradient id="XMLID_62_" x1="375" x2="375" y1="319.4" y2="412.5" gradientUnits="userSpaceOnUse">
          <stop offset="0" stop-color="#87bb2b" stop-opacity="0"/>
          <stop offset="1" stop-color="#4d801b" stop-opacity=".3"/>
        </linearGradient>
        <path fill="url(#XMLID_62_)" d="M0 315.9h750V500H0z"/>
      </g>
      <g>
        <path d="M750 424.5s-161.1-52.9-251.9-61.3c-90.8-8.4-191.5 16.8-265.9 36.4C157.7 419.3 0 407.1 0 407.1V500h750v-75.5z" class="st15"/>
        <path fill="#9edb3e" d="M498.1 363.1c-90.8-8.4-191.5 16.8-265.9 36.4C157.7 419.3 0 407.1 0 407.1v5c151.3 6.2 209.4.8 264.8-15.8 25.3-7.6 51.4-12.7 78.9-18.7 31.3-6.9 62-10.4 99.7-12.8 75.7-5 153 16.2 212.4 31.5-51.2-14.1-113-29-157.7-33.2z"/>
        <path fill="#5d991d" d="M750 424.5s-63.2-15.7-134.7-15.2c-71.5.5-94.6 5.6-94.1 0s32.9-14.1 10.8-14.5c-22.1-.4-81.4-6.3-153.2 13-71.7 19.3-117.1 61.6-378.8 64.7V500h750v-75.5z"/>
        <linearGradient id="XMLID_63_" x1="375" x2="375" y1="497.1" y2="387.2" gradientUnits="userSpaceOnUse">
          <stop offset="0" stop-color="#4d801b" stop-opacity=".3"/>
          <stop offset=".1" stop-color="#52881c" stop-opacity=".3"/>
          <stop offset=".4" stop-color="#5c991d" stop-opacity=".2"/>
          <stop offset=".6" stop-color="#62a31e" stop-opacity=".1"/>
          <stop offset="1" stop-color="#64a61e" stop-opacity="0"/>
        </linearGradient>
        <path fill="url(#XMLID_63_)" d="M750 424.5s-161.1-52.9-251.9-61.3c-90.8-8.4-191.5 16.8-265.9 36.4C157.7 419.3 0 407.1 0 407.1V500h750v-75.5z"/>
        <g>
          <path d="M591.7 460.1c-1.5-1.1-3.4-9.5-2-10s4.1 7.6 2 10z" class="st18"/>
          <path d="M588.1 461.2s0-2.6-1.6-4.2c-1.6-1.5-3.5-2.1-3.8-1.5-.4.6.6 1.6 1.9 2.7l3.5 3z" class="st18"/>
          <path d="M595.2 460.1s-.2-2.2.8-3.8c1-1.6 2.7-2 2.8-1.2.1.8-2.4 3.3-3.6 5z" class="st18"/>
          <path d="M584.1 461.2c-1.8-1.7-5.4-2.2-6.1-1.1-.6 1.1 6.1 1.1 6.1 1.1z" class="st18"/>
        </g>
        <g>
          <path d="M216.9 404.4c-1.6-1.4-1.7-4.1-1.5-6.1.2-2 1.5-4.3 2.4-3.4.9.9.9 3.8.7 5.4-.2 1.6-1.6 4.1-1.6 4.1z" class="st18"/>
          <path d="M215.3 404.4s-.5-2.2-2.1-3.5c-1.6-1.4-3.8-1.1-3.4 0 .5 1.1 4.3 2.3 5.5 3.5z" class="st18"/>
        </g>
        <g>
          <path d="M411.7 448c-1.6-1.4-1.7-4.1-1.5-6.1.2-2 1.5-4.3 2.4-3.4.9.9.9 3.8.7 5.4-.3 1.6-1.6 4.1-1.6 4.1z" class="st18"/>
          <path d="M410.1 448s-.5-2.2-2.1-3.5c-1.6-1.4-3.8-1.1-3.4 0 .5 1.1 4.3 2.4 5.5 3.5z" class="st18"/>
        </g>
        <g>
          <path d="M441.7 390s-1.9-2.1-2.4-4.7.6-5.1 1.2-5.1c.5 0 1.7 2.3 1.8 4.9.2 2.6-.6 4.9-.6 4.9z" class="st18"/>
          <path d="M440.8 390s-.5-1.6-2.7-2.9c-2.2-1.3-4.1-1.3-4.1-.4s6.8 3.3 6.8 3.3z" class="st18"/>
          <path d="M445.3 389.2s-.5-1.9 0-3.5 1.8-2.3 2-1.4c.2.9-.1 2-.7 3l-1.3 1.9z" class="st18"/>
          <path d="M447.3 390.4s.9-1.3 2.2-2.2c1.3-.9 2.5-.8 3-.4.5.5-.1 1.6-1.7 2.2s-3.5.4-3.5.4z" class="st18"/>
        </g>
        <g>
          <path d="M576.9 376.8s-.1-2-1.2-3.7c-1.1-1.7-2.4-1.7-2.8-1.1s4 4.8 4 4.8z" class="st18"/>
          <path d="M578.2 376.8s-.6-3.3 0-6 2.5-4.2 3.3-3.6c.8.6.4 3.1-.5 4.8l-2.8 4.8z" class="st18"/>
        </g>
        <g>
          <path d="M309.5 401.2s-.1-2-1.2-3.7c-1.1-1.7-2.4-1.7-2.8-1.1-.4.5 4 4.8 4 4.8z" class="st18"/>
          <path d="M310.9 401.2s-.6-3.3 0-6 2.5-4.2 3.3-3.6c.8.6.4 3.1-.5 4.8l-2.8 4.8z" class="st18"/>
        </g>
        <g>
          <path d="M417.1 449.3s1.2-1.6 1.4-3.6c.2-2-.8-2.8-1.5-2.6-.8.1.1 6.2.1 6.2z" class="st18"/>
          <path d="M418.1 450.2s1.6-3 3.7-4.7c2.2-1.7 4.5-1.8 4.8-.8s-1.6 2.6-3.4 3.4l-5.1 2.1z" class="st18"/>
        </g>
      </g>
      <g>
        <path d="M0 376.8c19 0 70.7 14.8 110.3 30.4 39.6 15.6 123 21.2 183.1 33.9 60.1 12.7 200.1 58.9 200.1 58.9H0V376.8z" class="st14"/>
        <path d="M0 441.5s40.5 1.2 88.3 7.4 116.1 16.5 126.4 25.3-33.8 12.3-33.8 12.3l96.9 13.5H0v-58.5z" class="st19"/>
        <path d="M271.9 440.7c44.9 9 159.5 40.9 221.6 59.3 0 0-140-46.1-200.1-58.9-60.1-12.7-143.5-18.4-183.1-33.9C70.7 391.6 19 376.8 0 376.8v6.3c10.8 0 74.6 17.7 110.7 30.7 35.3 12.6 116.3 17.9 161.2 26.9z" class="st18"/>
        <linearGradient id="XMLID_64_" x1="200.8" x2="238.9" y1="556.2" y2="458.5" gradientUnits="userSpaceOnUse">
          <stop offset="0" stop-color="#3f710e" stop-opacity=".3"/>
          <stop offset=".1" stop-color="#417310" stop-opacity=".3"/>
          <stop offset=".5" stop-color="#4a7d18" stop-opacity=".2"/>
          <stop offset="1" stop-color="#4d801b" stop-opacity="0"/>
        </linearGradient>
        <path fill="url(#XMLID_64_)" d="M0 376.8c19 0 70.7 14.8 110.3 30.4 39.6 15.6 123 21.2 183.1 33.9 60.1 12.7 200.1 58.9 200.1 58.9H0V376.8z"/>
        <g>
          <g>
            <path d="M46.7 416c-2.5-1.9-5.6-15.5-3.3-16.3 2.3-.9 6.9 12.3 3.3 16.3z" class="st32"/>
            <path d="M40.9 417.8s0-4.3-2.7-6.8-5.6-3.4-6.2-2.4c-.6 1 1 2.7 3.1 4.4l5.8 4.8z" class="st32"/>
            <path d="M52.4 416s-.3-3.5 1.3-6.2 4.5-3.4 4.6-2c.2 1.4-3.8 5.4-5.9 8.2z" class="st32"/>
            <path d="M34.3 417.8c-3-2.8-8.9-3.6-10-1.8-1 1.8 10 1.8 10 1.8z" class="st32"/>
          </g>
          <g>
            <path d="M357 489.8c2.5-1.9 5.6-15.5 3.3-16.3-2.3-.8-6.8 12.4-3.3 16.3z" class="st32"/>
            <path d="M362.9 491.6s0-4.3 2.7-6.8 5.6-3.4 6.2-2.4c.6 1-1 2.7-3.1 4.4l-5.8 4.8z" class="st32"/>
            <path d="M351.3 489.8s.3-3.5-1.3-6.2-4.5-3.4-4.6-2 3.8 5.5 5.9 8.2z" class="st32"/>
            <path d="M369.4 491.6c3-2.8 8.9-3.6 10-1.8 1 1.8-10 1.8-10 1.8z" class="st32"/>
          </g>
          <g>
            <path d="M66.4 469.2c-2.7-2.2-2.8-6.7-2.5-10 .3-3.3 2.4-7 3.9-5.5s1.5 6.2 1.2 8.8c-.3 2.6-2.6 6.7-2.6 6.7z" class="st32"/>
            <path d="M63.8 469.2s-.8-3.6-3.5-5.8c-2.7-2.2-6.2-1.8-5.5 0 .8 1.8 7.1 3.9 9 5.8z" class="st32"/>
          </g>
          <g>
            <path d="M167.4 464.9s-3.1-3.4-3.9-7.7c-.7-4.3 1-8.3 1.9-8.3.9 0 2.8 3.7 3 8 .2 4.3-1 8-1 8z" class="st32"/>
            <path d="M165.9 464.9s-.9-2.7-4.5-4.8c-3.6-2.1-6.7-2.1-6.7-.6s11.2 5.4 11.2 5.4z" class="st32"/>
            <path d="M173.2 463.7s-.7-3.1 0-5.8c.7-2.7 3-3.7 3.3-2.3.3 1.4-.1 3.2-1.2 4.8l-2.1 3.3z" class="st32"/>
            <path d="M176.5 465.6s1.5-2.2 3.6-3.7 4.2-1.4 4.9-.6c.7.8-.1 2.7-2.8 3.6-2.6.9-5.7.7-5.7.7z" class="st32"/>
          </g>
          <g>
            <path d="M276.1 469.2s-.1-3.3-1.9-6c-1.8-2.7-3.9-2.8-4.6-1.9-.8.9 6.5 7.9 6.5 7.9z" class="st32"/>
            <path d="M278.3 469.2s-1-5.5 0-9.9 4-6.9 5.4-5.9c1.3.9.6 5-.9 7.8l-4.5 8z" class="st32"/>
          </g>
        </g>
      </g>
      <g>
        <g>
          <path d="M679 500c-5.7-5.5-8.2-14.6-10.6-29.1-2.4-14.5-1.2-27.7-12.7-38-11.5-10.2-33.2-21.7-33.2-21.7s34.2 8.7 45 19.5c10.9 10.9 21.3 39.5 22.5 49.2 1.2 9.6 0 20 0 20h-11z" class="st19"/>
          <path d="M653.6 426.4c6.2 4.3 16 10.9 19.5 25.4 3.2 13.1 8.6 41 11.9 48.2h2.8s-4.9-17.8-8.6-32.9c-3.8-15.1-4.6-31.3-25.6-40.7z" class="st15"/>
        </g>
        <g>
          <path d="M669.6 407.9c.5-1.3-.5-2.9-1.9-3 .9-.2 1.8-.4 2.5-1s.8-1.8.1-2.4c-.3-.3-.8-.3-1.2-.3-1 0-2 .2-2.8.6l1.3-1.2c.4-.4.7-1.2.3-1.6l-.6-.4c-.7-.3-1.5-.3-2.2-.2.8-.5 1.6-1.3 1.4-2.2-.2-.8-1.2-1.2-2.1-1.1-.9.1-1.7.5-2.5.6 1.1-.6 1.5-2 1.1-3.1-.4-1.1-1.5-1.9-2.7-2.1s-2.4.3-3.3 1.1l-.9.9c.8-.6.3-1.9-.6-2.3-.9-.4-1.9-.1-2.8.2 1.2-.5 1.3-2.3.4-3.1-.9-.8-2.5-.7-3.4.2.8-.8.9-2.3.2-3.3s-2-1.4-3.2-1c-1.1.4-2 1.4-2.1 2.6-.2-.7-.9-1.2-1.6-1.2-.7 0-1.4.4-1.7 1.1.3-.6.1-1.5-.5-1.8-.6-.4-1.4-.2-1.9.3.3-.6-.3-1.4-.9-1.6-.7-.2-1.4.1-2 .4.5-.2.5-1 .1-1.4-.4-.4-1-.4-1.6-.3.6-.1.7-1 .3-1.4-.4-.4-1.1-.5-1.6-.2s-.9.8-1.1 1.3c-.4-.9-1.7-1.9-2.7-1.9-1 0-2 .6-1.8 1.4.4.7.9 1.5 1.6 2l7.6 4.2 6 3.6c2.5 1.7 4.8 3.7 7.1 5.6l9 7.7 4.5 3.9c1.3 1.2 5.3 3.1 6.2.4z" class="st33"/>
          <path d="M664.3 406.7c.7.7 1.9 1.8 1.4 2.5-.2.3-.4.4-.7.5-.4.2-.4.1-.6.6a3 3 0 01-1.1 1.6c-.7.4-1.9 0-1.9-.8-.9.1-1.7-.6-1.8-1.4-.1-.9.5-1.7 1.4-1.9a2.6 2.6 0 01-1.4-2.1c0 .2-.6.5-.7.5-.4.1-.7.1-1-.2a2 2 0 01-.6-1c.2.6-1.3 1.1-1.7 1.2-1 .1-1.9-.4-2.4-1.3-.3.5-1 .8-1.5.6-.2-.1-1-1.2-.8-1.2-.5.1-1-.1-1.2-.5-.5-1.1 1.3-3.1 2-3.7-.7.6-2.8 1.8-3.6.7-.2-.3-.1-.9.3-1a3 3 0 01-1-.4c-.3-.2-.6-.5-.6-.9 0-.3.3-.6.6-.8l1-.1c-.6-.2-1-1-.7-1.6-.4.3-.9.4-1.3.2s-.8-.6-.9-1v1.6l-.2.7c-.3.5-1.8-.1-1.7-.3-.7 1.1-3 1.6-3.3-.1-.1-.5.2-1 .6-1.2-.3.2-.7.1-1-.1s-.4-.6-.4-1c.1-.5.5-.8 1-1.1-.7.2-1.5-.5-1.5-1.2 0-.5.3-1 .7-1.3l1.3-.7c-.6 0-1.1 0-1.6-.3s-.9-.9-.7-1.4c-.4.6-1.3 1.5-2.1 1.3-.5-.1-.8-.9-.4-1.2-.6 0-1.1.3-1.5-.3-.3-.3-.3-2.1.2-2.3-.9.5-2.1-.1-2.4-1.1-1 1.1-3 .7-3.6-.6-.2.2-1 .2-1.2-.1l-.1-.4c0-.3.1-.7.3-1 .2-.3.6-.4.9-.5-.4 0-.7-.2-1-.4-.6-.5-.4-1.4 0-1.6l2.8 1.5a125.3 125.3 0 0133.7 24.4c-.2 0-.1.1 0 .2z" class="st34"/>
          <path d="M627.5 380.5a72.7 72.7 0 015.5 2.4 126.8 126.8 0 0122.4 14.5l4.4 3.8 2.2 2.1 1.1 1.1 1 1.2a76.4 76.4 0 0117 35c1 4.2 1.7 8.5 2.3 12.6l.4 3.1.3 3 .5 5.8.4 10.7-.1 9-.3 7c-.4 3.8-1.4 6-1.4 6s-.7-2.3-.5-6.1a454.1 454.1 0 00.4-15.9 201.5 201.5 0 00-1.4-22.4c-.5-4.1-1.2-8.2-2.1-12.4a93.5 93.5 0 00-9-24.3 63.2 63.2 0 00-8.2-11.4l-1.1-1.1-2.1-2.1c-1.4-1.4-2.9-2.6-4.3-3.8a139.3 139.3 0 00-22-14.6l-4-2c-1-.7-1.5-1-1.4-1.2z" class="st35"/>
        </g>
        <g>
          <path d="M696.7 418.2c.8-1.6.2-3.9-1.5-4.6.7.3 1.6.5 2.3.1.7-.4 1-1.5.3-1.9.6.4 1.2.7 1.8.8.7.1 1.4-.1 1.7-.7.6-1.1-.6-2.2-1.6-2.8 1.1.2 2.3-.7 2.5-1.9.2-1.1-.5-2.3-1.5-2.9s-2.3-.6-3.4-.3c1.1-.2 2.3-.8 2.7-1.9.4-1.1-.4-2.5-1.5-2.4 1.9.3 3.8-1.5 3.8-3.4s-1.6-3.6-3.5-4.1c1.1-.1 1.9-1.3 1.6-2.4-.3-1-1.6-1.7-2.6-1.3 1.1-.9.5-2.9-.8-3.2 2 .1 4.4-.7 4.9-2.7.3-1.7-1.3-3.4-3-3.1 1.1-.6 1.2-2.3.4-3.2-.8-.9-2.3-1.1-3.4-.6 1.3-.3 1.5-2.5.3-3.1 1.1.6 2.7-.1 2.9-1.4.2-1.2-1-2.5-2.3-2.3 1.1 0 1.9-1.3 1.7-2.4-.2-1.1-1.2-1.9-2.2-2.3.8-.1 1.4-.8 1.4-1.5 0-.8-.6-1.5-1.3-1.6h1.6a3 3 0 00.1-1.6c1.3.5 3-.3 3.3-1.7.2-1.4-1.4-2.8-2.7-2.2.8-.7.7-2.2-.2-2.8.8-.1 1.4-.9 1.3-1.7-.1-.8-.8-1.4-1.6-1.4l-2.4 6.5c-.7 2.2-1.5 4.3-2 6.5-.9 3.8-1.1 7.8-1.6 11.7-.6 4.4-1.6 8.7-2.4 13-1 5.5-1.5 11.1-1.6 16.7 0 2.6-.3 5.1-.1 7.7.1 2.1 0 5.2 1.3 7 1.7 2.8 6 2 7.3-.6z" class="st33"/>
          <path d="M686.5 417.6c-.6-.7-.8-1.7-.4-2.6-1.2.7-2.9-.5-2.9-1.9s1.4-2.6 2.8-2.6c-.9.2-1.7.3-2.6.2-.9-.1-1.7-.6-2-1.4-.5-1.4.5-2.8 1.5-3.8-.9.4-2-.5-2-1.5s.8-1.9 1.7-2.2c-1.2-.2-2.1-1.5-2-2.7.1-1.2 1.1-2.3 2.3-2.7a5 5 0 013.6.3c-1.1-.7-.7-2.8.6-3.1-.6.5-1.6.1-1.8-.7-.2-.7 0-1.5.5-2.1a7.2 7.2 0 01-4-1.4 4.3 4.3 0 01-1.6-3.8c.3-1.4 1.6-2.6 3.1-2.4 1 .1 1.8.9 2.6 1.6-.9-.8-.2-2.7 1-2.6-1.1-.2-2-1.3-1.7-2.4.3-1.1 1.8-1.6 2.5-.8-1.2-.9-1.8-2.7-1.2-4.1.7-1.4 2.7-1.9 3.9-.9-.5-.5-.8-1.2-.7-1.9.1-.7.9-1.2 1.5-.9a3 3 0 01-2.1-3.4 3.1 3.1 0 013.1-2.5 2 2 0 01-1.8-1.4 2 2 0 01.9-2.1c-1.6-.3-2.4-2.4-1.6-3.8.8-1.4 2.7-1.9 4.3-1.4-.4-.3-.3-1 .1-1.3.4-.3.9-.4 1.4-.4-1-.2-1.6-1.4-1.3-2.4.4-.9 1.6-1.4 2.5-.9-.1-.5-.2-1-.1-1.5s.5-1 1-1 1 .6.7 1c-1 1.6-1.3 4.2-1.8 6a85 85 0 00-1.5 6.9c-.9 4.6-1.6 9.3-2.3 13.9l-.7 5-1.3 9c-.4 2.9-.4 5.7-.5 8.6l-.5 12c-.1 1.9 0 4-.4 5.9-.1 1.1-1.8 1.3-2.8.2z" class="st34"/>
          <path d="M698.9 348.9c.1 0 0 .6-.3 1.7-.4 1-.9 2.5-1.4 4.5-.5 2-1.2 4.4-1.7 7.1a140 140 0 00-1.6 9.4l-1.4 11.2-1.3 12.5a465 465 0 00-1.7 27.3c-.4 9.3-.5 18.6-.4 27.4 0 8.7.2 16.9.5 23.9l.4 9.5.4 7.3c.1 4.1-.5 6.5-.5 6.5s-1-2.3-1.4-6.3l-.5-7.4-.4-9.6a646.9 646.9 0 012.4-78.7 886.1 886.1 0 013-23.7 136 136 0 011.7-9.4l1.8-7.2 1.5-4.5.9-1.5z" class="st35"/>
        </g>
        <g>
          <path d="M682.9 500s-.8-14.4 6-34.8c6.9-20.4 27-37 38.1-38.8 0 0-7.9 2.9-13.9 14.4s-8.7 19.8-9.1 30c-.4 10.3-4 20.2-12.5 29.1h-8.6z" class="st14"/>
          <path d="M707.6 441.5A96.2 96.2 0 00686 500h2.8s.3-9.5 3.7-25a85.7 85.7 0 0115.1-33.5z" class="st15"/>
        </g>
        <g>
          <path d="M642.8 464.9a51 51 0 0111.5 22c1.1 4.7 3.1 9.1 6.1 13.1h13.2a99 99 0 00-8.4-19.8c-8.4-14.8-26.5-24.7-35.4-24.4 0 .1 6.6 1.1 13 9.1z" class="st14"/>
          <path d="M663.8 488.4c2 4.6 3.5 8.5 4.5 11.6h2.5a76.1 76.1 0 00-23.7-35.4 67.2 67.2 0 0116.7 23.8z" class="st15"/>
        </g>
        <g>
          <path d="M715.7 464.9c-9.5 6-21.7 24.7-24.2 31.4l-1.2 3.7h15.1a68 68 0 003.1-6.6c4.1-9.9 5.4-19.6 15.3-25 9.9-5.4 27.2-10 27.2-10s-25.8.6-35.3 6.5z" class="st19"/>
          <path d="M698.2 500c3.6-7.2 7.5-15.8 10.1-21 4.9-9.7 13-12.8 18.1-14.9-16.5 3.2-19.8 14.6-24.9 24.8l-5.7 11.1h2.4z" class="st15"/>
        </g>
      </g>
      <g>
        <g>
          <path d="M74.1 500s-.8-14.4 6.1-34.8c6.9-20.4 27-37 38.1-38.8 0 0-7.9 2.9-13.9 14.4a65.2 65.2 0 00-9.1 30c-.4 10.3-4 20.2-12.5 29.1h-8.7z" class="st23"/>
          <path d="M98.8 441.5A96.2 96.2 0 0077.2 500H80s.3-9.5 3.7-25a85.7 85.7 0 0115.1-33.5z" class="st14"/>
        </g>
        <g>
          <path d="M34 464.9a51 51 0 0111.5 22c1.1 4.7 3.1 9.1 6.1 13.1h13.2a99 99 0 00-8.4-19.8C48 465.5 29.9 455.6 21 455.9c0 0 6.6 1 13 9z" class="st23"/>
          <path d="M55 488.4c2 4.6 3.5 8.5 4.5 11.6H62a76.1 76.1 0 00-23.7-35.4A67.2 67.2 0 0155 488.4z" class="st14"/>
        </g>
        <g>
          <path fill="#2d5e03" d="M106.9 464.9c-9.5 6-21.7 24.7-24.2 31.4l-1.2 3.7h15.1a68 68 0 003.1-6.6c4.1-9.9 5.4-19.6 15.3-25 9.9-5.4 27.2-10 27.2-10s-25.8.6-35.3 6.5z"/>
          <path d="M89.4 500c3.6-7.2 7.5-15.8 10.1-21 4.9-9.7 13-12.8 18.1-14.9-16.5 3.2-19.8 14.6-24.9 24.8L87 500h2.4z" class="st15"/>
        </g>
      </g>
      <g>
        <path d="M248.7 363.7c1.3 0 3.5-.4 2.1-1.9-1.1-1.1-6.5-.6-7.7-.1.1-.7-.5-1.4-1.2-1.6-.7-.1-1.5.4-1.6 1.1l-1.2-.8-.9.8c-1.4-2.4-5.4-2.7-7.1-.4-.4-1.1-1.9-1.2-3.1-1.2l-4.1.1c-.5-1.1-1.4-2.1-2.6-2.2-1.2-.1-2.4 1.3-1.8 2.3-1-1.1-2.2-2.2-3.6-2.4-1.5-.2-3.2 1-2.9 2.4-1.1-.7-2.3-1.4-3.6-1.7-1.3-.2-2.8.1-3.6 1.2 0-2.4-3.2-4-5.1-2.6-.3-3-3.7-5.2-6.5-4.2s-4.2 4.8-2.7 7.3c-.4-.6-1.3-.8-2-.4s-.9 1.2-.7 1.9c-.3-1.3-1.5-2.5-2.9-2.5s-2.6 1.5-2.1 2.8c-.8-.8-1.8-1.7-2.9-1.9-1.2-.2-2.6.7-2.5 1.8-.5-.6-1-1.3-1.8-1.4-.8-.2-1.7.5-1.5 1.2-.6-.4-1.3-.9-2.1-1s-1.7.4-1.8 1.2c-1.8-2.3-6.1-1.8-7.3.8-.6 1.3 8.8 1.4 9.9 1.4H248.7z" class="st37"/>
        <path fill="#a7e13f" d="M650 348.1c1.3 0 3.5-.4 2.1-1.9-1.1-1.1-6.5-.6-7.7-.1.1-.7-.5-1.4-1.2-1.6-.7-.1-1.5.4-1.6 1.1l-1.2-.8-.9.8c-1.4-2.4-5.4-2.7-7.1-.4-.4-1.1-1.9-1.2-3.1-1.2l-4.1.1c-.5-1.1-1.4-2.1-2.6-2.2-1.2-.1-2.4 1.3-1.8 2.3-1-1.1-2.2-2.2-3.6-2.4-1.5-.2-3.2 1-2.9 2.4-1.1-.7-2.3-1.4-3.6-1.7-1.3-.2-2.8.1-3.6 1.2 0-2.4-3.2-4-5.1-2.6-.3-3-3.7-5.2-6.5-4.2-2.8.9-4.2 4.8-2.7 7.3-.4-.6-1.3-.8-2-.4-.6.4-.9 1.2-.7 1.9-.3-1.3-1.5-2.5-2.9-2.5s-2.6 1.5-2.1 2.8c-.8-.8-1.8-1.7-2.9-1.9-1.2-.2-2.6.7-2.5 1.8-.5-.6-1-1.3-1.8-1.4-.8-.2-1.7.5-1.5 1.2-.6-.4-1.3-.9-2.1-1-.8-.1-1.7.4-1.8 1.2-1.8-2.3-6.1-1.8-7.3.8-.6 1.3 8.8 1.4 9.9 1.4H650z"/>
        <path d="M132.6 347.8c.5 0 1.5-1.9 1.4-2.3-.6-2-3.9-.1-4.4.9 0-1.6-2.5-2.4-3.5-1.2l-2.4-1-1.3 1c-.5-1.3-1.5-2.7-2.9-3-1.4-.3-3.1.8-2.9 2.2a3.2 3.2 0 00-2.9-1.8 3 3 0 00-2.7 2c-.6-.8-1.7-1.8-2.6-1.3-.4.2-.7.8-1.2.9-.9.3-1.5-.8-2.1-1.5-1.7-2.1-5.7-1.1-6.2 1.5a5.7 5.7 0 00-2.7-1.3c-1-.1-2.2.5-2.3 1.5-.8-1.4-1.6-3-3.1-3.5-1.5-.6-3.6.6-3.3 2.2-.7-.6-1.4-1.2-2.3-1.3-.9-.2-1.9.2-2.1 1.1-1.3-.8-3.2 1-2.5 2.3-.7-.8-2.1-.8-2.8.1-.4-1.3-.9-2.7-2.1-3.5-1.2-.7-3.1-.2-3.2 1.2-1.1-1.4-2.8-2.4-4.6-2.2-1.8.1-3.5 1.6-3.4 3.4-.6-1.5-3.1-1.7-3.9-.3.4-2-2.3-3.9-4-2.8.1-1.2-.8-2.4-2-2.6-1.2-.2-2.5.5-2.9 1.7a8.6 8.6 0 00-2.9-2.8c-1.2-.6-2.9-.5-3.7.6-.8 1.1.1 3.1 1.4 2.9-.7 0-1.3.6-1.3 1.3 0 .7.7 1.3 1.4 1.2-.2.7-.2 1.4 0 2.1-1-.9-2-1.9-3.3-2.2-1.3-.3-3 .4-3.2 1.7a6 6 0 01-2.2-.9c-.7-.4-1.6-.6-2.3-.3-.7.3-1.1 1.5-.4 2a5.5 5.5 0 00-5.9-.4c-2-.7-4.4.2-5.5 2l11.3.5h89.7l7.8-.1z" class="st37"/>
      </g>
      <g>
        <path d="M493.3 297.3c-5.5-.5-3.9 4.3-3.9 4.3s-1-.1-1.3 1c0 0-1.4-1.5-2.7 0-1.3 1.5-.8 3.6.6 4.3 0 0-1.8-.3-2.7 1.6 0 0-2.3-.9-3.1.4-.9 1.3.8 2.4.8 2.4s-2.1.7-1.8 1.9 1 1.1 1 1.1-.8 1.7.7 2.2c0 0-.7.5-.2 1.4 0 0-.9-.5-1.5 0s0 1.9 0 1.9-1.2 0-1.3.9c0 0-.7-1.8-1.8-1.4-1.1.4-1 1.4-1 1.4s-2-3.6-4.7-2.4c0 0-.8-2.3-3.3-1.5-2.6.8-1.8 2.4-1.8 2.4s-1.4.6-1.4 1.5 1 1.4 1 1.4-1.6.2-1.9 1.4c0 0-1.2-1.1-2-.4-.8.7-.6 1.8-.6 1.8s-1.1-.8-2.7 0-1.5 2.2-1.5 2.2-1.4-1.1-2.6-.6c-1.2.5-1 1.6-1 1.6s-2.8-.6-2.7 1.8H494V299l-.7-1.7z" class="st11"/>
        <path d="M643.1 308.5c2-2.1 4.5-2.7 6.3-2.2 1.8.5 2.3 2.4 2.1 3.5 0 0 1.8-2 3.3-1.3 1.4.7 1.1 2.5 1.1 2.5s2.5-2.9 5.8-1.2 1.8 7 .7 8.1c0 0 1.9-.6 2.9.7 1 1.3 0 4 0 4s1.6-.5 2.9-.1c1.3.3 1.3 1.9 1.3 1.9s2.4-2.8 4.2-2.8 2.4 1.3 2.4 1.3 1.2-1.8 2.5-1.1 1.5 1.5 1.5 1.5 1.5-1.3 4.7.8c1.8 1.2 1.9 3.9 1.9 3.9s2.1-1.1 3.8-.5c1.7.6 2.2 2.2 2.2 2.2h-49.5v-21.2z" class="st23"/>
        <g>
          <path d="M537.2 329.7h-42.9v-29.5l7.4-14.9 14-13 14.1 13 7.4 14.9z" class="st39"/>
          <path fill="#f7f7f7" d="M514 272.3v1.5l13 11.9 7.7 14.5h2.5l-7.4-14.9-14.1-13z"/>
          <path d="M537.2 300.2h61.2v29.5h-61.2z" class="st41"/>
          <path d="M602.3 300.2l-7.4-14.9-14-13h-65.2l14.1 13 7.4 14.9z" class="st42"/>
          <path fill="#c9c9c9" d="M594.9 285.3h-65.1l7.4 14.9h65.1z"/>
          <path d="M491 300.2l7.4-14.9 14.1-13h3.2l-14 13-7.4 14.9z" class="st44"/>
          <path d="M515.7 305a8.5 8.5 0 00-8.5 8.5v16.2h17.1v-16.2c0-4.7-3.9-8.5-8.6-8.5z" class="st45"/>
          <path d="M537.2 300.2h61.2v3.3h-61.2z" class="st45"/>
          <path d="M598.4 315.5H644v14.2h-45.6z" class="st39"/>
          <path d="M598.4 315.5H644v2.4h-45.6z" class="st41"/>
          <path d="M598.4 315.5h47.8v-5.7c0-3.1-2.5-5.7-5.7-5.7h-42.1v11.4z" class="st42"/>
          <path d="M598.4 304.1h4.7v25.6h-4.7z" class="st44"/>
        </g>
      </g>
      <g>
        <path d="M342.6 327l11-78.2h7l11 78.2" class="st46"/>
        <path d="M357.1 248.8v79.3" class="st46"/>
        <g>
          <path d="M343.7 319l13.4-14.4-9.2-15.3 9.2-14.6-5.5-11.8 5.5-11.7" class="st46"/>
          <path d="M353.2 251.7l3.9 10.4-7.5 14.6 7.5 13-11.3 14.3 11.3 15" class="st46"/>
        </g>
        <g>
          <path d="M370.5 319l-13.4-14.4 9.1-15.3-9.1-14.6 5.5-11.8-5.5-11.7" class="st46"/>
          <path d="M360.9 251.2l-3.8 10.9 7.4 14.6-7.4 13 11.3 14.3-11.3 15" class="st46"/>
        </g>
        <path d="M351.9 246.8h10.4c.5 0 1 .4 1 1 0 .5-.4 1-1 1h-10.4a1 1 0 01-1-1c0-.5.4-1 1-1z" class="st45"/>
        <path fill="none" stroke="#6d2e2e" stroke-miterlimit="10" d="M355.9 238.4h2.4v9.4h-2.4z"/>
        <g>
          <path d="M370.1 225.3v-1.2c0-.3-.3-.5-.6-.5l-7.3 1.2v.9l7.3 1.2c.3.1.6-.2.6-.5v-1.1z" class="st45"/>
          <path d="M367.6 217.6l-.7-1c-.2-.2-.5-.3-.7 0l-5.2 5.3.5.7 6.6-3.3c.3-.1.4-.5.2-.7l-.7-1z" class="st45"/>
          <path d="M361.1 212.9l-1.1-.4c-.3-.1-.6.1-.6.4l-1.1 7.3.9.3 3.4-6.6c.1-.3 0-.6-.3-.7l-1.2-.3z" class="st45"/>
          <path d="M353.1 212.9l-1.1.4c-.3.1-.4.4-.3.7l3.4 6.6.9-.3-1.1-7.3c0-.3-.3-.5-.6-.4l-1.2.3z" class="st45"/>
          <path d="M346.6 217.6l-.7 1c-.2.2-.1.6.2.7l6.6 3.3.5-.7-5.2-5.3c-.2-.2-.6-.2-.7 0l-.7 1z" class="st45"/>
          <path d="M344.1 225.3v1.2c0 .3.3.5.6.5l7.3-1.2v-.9l-7.3-1.2c-.3-.1-.6.2-.6.5v1.1z" class="st45"/>
          <path d="M346.6 232.9l.7 1c.2.2.5.3.7 0l5.2-5.3-.5-.7-6.6 3.3c-.3.1-.4.5-.2.7l.7 1z" class="st45"/>
          <path d="M353.1 237.6l1.1.4c.3.1.6-.1.6-.4l1.1-7.3-.9-.3-3.4 6.6c-.1.3 0 .6.3.7l1.2.3z" class="st45"/>
          <path d="M361.1 237.6l1.1-.4c.3-.1.4-.4.3-.7l-3.4-6.6-.9.3 1.1 7.3c0 .3.3.5.6.4l1.2-.3z" class="st45"/>
          <path d="M367.6 232.9l.7-1c.2-.2.1-.6-.2-.7l-6.6-3.3-.5.7 5.2 5.3c.2.2.6.2.7 0l.7-1z" class="st45"/>
        </g>
        <path d="M355.7 225.3c0-.7.6-1.3 1.3-1.3s1.3.6 1.3 1.3c0 .7-.6 1.3-1.3 1.3s-1.3-.6-1.3-1.3z" class="st45"/>
      </g>
      <g>
        <path d="M0 315.9v-42.6s4-4.3 9.1-1.6c2.9 1.5 4.5 7.5 1.4 10.4 0 0 4.8 0 3.9 3.9 0 0 2.7-2.3 4.8-.2 2 2-.9 4.3-.9 4.3s3 1 1.6 3.5c0 0 1.1-1.9 3.1-1.2 0 0-.6-5 3.4-5 4.1 0 7.2 3.9 5.4 7.5 0 0 3.9 1.8 2 4.1 0 0 .7-2.3 3.9-1.6 0 0-.7-4.5 4.3-5.9 0 0-.2-6.4 5.2-8.6 5.4-2.3 7.7-.2 7.7-.2s1.4-2.7 4.3-2c2.9.7 2.3 4.1 2.3 4.1s2.7-.7 4.3 1.1c1.6 1.8 0 5.9 0 5.9s2.3-.5 3.4 1.9c0 0 1.6-3.2 5.2-2.3 3.6.9 2.9 5 2.9 5s.9-.7 2.9.2c2 .9 1.4 3.6 1.4 3.6s3.2-2 5-.9c1.8 1.1 2.3 3.6 2.3 3.6s2.7-2.1 5.7-1.7c2.9.4 3.9 3.3 3.9 3.3s1.6-2 2.9-1.1c1.4.9 2.7 5.2 2.7 5.2s3.2-.2 5 1.6c1.8 1.8 1.8 3.6 1.8 3.6s6.4 0 6.4 2.3H0z" class="st14"/>
        <path d="M88.4 315.1c-2.3-1.8-5.7-2.4-8.1-.9a7 7 0 00-5.7-4.3 7 7 0 00-6.4 3.2c-.7-2-3.6-2.7-5.1-1.3 0-1.2-.9-2.4-2.1-2.7-1.2-.3-2.6.4-3.1 1.5.7-2.9-.7-6.1-3.2-7.6a7 7 0 00-8.2 1 7 7 0 00-1.9 6.5c-.4-.6-1-1.1-1.8-1.4-1.3-.4-2.8 0-3.7 1.1a5.2 5.2 0 00-4.4-2.5c-1.8 0-3.5 1-4.4 2.5a7 7 0 00-5-6.2c-2.8-.7-5.9.6-7.4 3.1a5 5 0 00-2.5-5.4 5 5 0 00-5.8 1c.6-1.7.7-3.6.3-5.4-.3-1.1-.8-2.3-1.7-2.9-.9-.7-2.3-.8-3.2 0a7.2 7.2 0 00.5-9.8 7 7 0 00-5.5-2.3v33.6h89.3l-.9-.8z" class="st19"/>
      </g>
      <g>
        <path d="M510.3 151.5a10.3 10.3 0 00-9.4-7.5c-.5 0-4 .8-3.9.9-1.6-2.9-1.6-5.9-3.6-8.7a19 19 0 00-6.4-5.6c-1.9-1-4.1-1.6-6.2-1.3-3.3.5-5.9 3.1-7.5 6-3.4 5.9-4 13.3-1.5 19.6-1.6.1-2.5 2.5-1.4 3.7-1.4-1.8-4.7-1.5-5.8.6-1.4-2.5-3.9-4.6-6.7-4.5-2.8.1-5.3 3.5-3.8 5.9-1.2-2.3-5.4-1.5-5.6 1.1.1-3.5-3.9-5.6-7.3-5.8-2.7-.2-5.7.4-7.5 2.4-1.8 2-1.6 5.8.9 6.9-1.2-1-3.2-1.1-4.4-.1a3.6 3.6 0 00-1 4.3c-1.2-1.3-3.2-2-4.7-1.1-1.4 1-1 3.8.7 3.8-2.5 0-3.3.5-5.3 1.6-1.8 1-4 1.3-6 .6-.9-.3-1.9-.7-2.8-.4l-.3 1.1h-3.4c-.4 0-.8 0-1.1.2-.3.2-.6.6-.5.9.1.6.9.7 1.4.7 7.2.2 13.6 1.4 20.7 0 4.7 7 15.2 7.8 21.1 1.8.3-.3.6-.6 1-.6l.7.2c2.1.8 4.7-.3 5.6-2.3.2 1.4 1.7 2.4 3.1 2.4 1.4 0 2.7-1 3.6-2.1 2.6 2.4 6.2 3.8 9.7 3.8 2.5 0 5-.7 7.1-2a37 37 0 004.6-3.7c1.5 1.5 4.4 1.1 5.5-.7 1.1 1.7 3 2.8 5 3 .5 0 5.6 0 5-1.4a9 9 0 0012.2 3.8c2.2 3.2 6.3 5 10.2 4.4 3.8-.6 7.3-3.4 8.5-7.1 4.1 2.4 9.5 2.5 13.7.2-.4 2.3 2.8 4.4 4.7 3.1 1.4 2.5 6.2 1.4 6.3-1.5 1.6 2.1 5.6 1.2 6.2-1.4.7 1.5 2.8 1.9 4.4 1.5 1.6-.4 3.1-1.3 4.8-1.5 3.5-.5 7.7 2 10.3-.3l10.8.4 16.6.7c1.9.1 3.8 0 5.7-.1l.3-.1c.3-.1.3-.5.1-.8l-.7-.4c-.7-.2-1.5-.2-2.2-.2-.5 0-1 .1-1.4-.2-.4-.4-.3-1-.6-1.3-.3-.4-1-.4-1.5-.3l-4 .5h-.7l-.5-.5c-1.2-1.6-2.8-1.3-4.5-1.6-3.4-.7-6.9-1.4-10.3-.7-1.3.2-2.6.7-3.9.3-1.1-.3-1.9-1.2-2.9-1.8-2.3-1.4-5.2-1.4-7.8-1.4-3 .1-6.7.6-7.8 3.3a6.7 6.7 0 00-8.5 1.2 5.7 5.7 0 00-5.8-4.1c.4-2.4-2.2-4.6-4.7-4.6-2.5-.1-4.8 1.3-6.9 2.6 1.1-.5.9-2.2.1-3.1-.8-.9-2-1.5-2.6-2.6-.4-.7-.4-1.6-.6-2.4-.9-3.5-6.2-4.8-8.6-2.1.6-3-.1-6.5-2.5-8.3-2.4-1.8-6.7-1-7.6 1.9-2.2-2.5-6.5-1.9-7.9.8z" class="st48"/>
        <path d="M580.3 174a7 7 0 00-9.4.3c-1.5-1-3.7-.7-5 .6a9.5 9.5 0 00-10.9 2.6c-.4-2.1-4-2.6-4.9-.6l-1.2-5.8c-1.5-.8-3.7.5-3.7 2.2-1.6-2.3-5.7 1.6-7.9-.2-.7-.5-.9-1.4-1.4-2.1-1.7-2-4.9-.4-7 1.2 1.4-3.6-3.8-7-7.3-5.3-3.5 1.7-4.7 6.1-4.4 9.9a4.4 4.4 0 00-5.4-.2c-1.4-4.2-7.2-6.3-10.9-3.9 2.4-2.8-.5-7.6-4.2-8.1s-7.1 1.9-9.8 4.5a4.8 4.8 0 00-5.9-.5c1.2-1.3-.2-3.7-1.9-3.9-1.8-.1-3.3 1.4-3.8 3.2-.5 1.7-.2 3.6.1 5.3-1.7 1.3-4-.5-5.5-2s-4.1-3-5.5-1.4c-.3-2-2.7-3.2-4.7-3-2 .3-3.8 1.6-5.4 2.8-1.3-2.3-4.9-2.6-7.1-1.2-2.2 1.5-3.3 4.2-3.7 6.9a5.5 5.5 0 00-7.8.2c-1.9-2.8-6.1-1.6-9.4-.8a22 22 0 01-10.2.3 18 18 0 01-2.1-.8h-.1c-.9-.3-1.9-.7-2.8-.4l-.3 1.1h-3.4c-.4 0-.8 0-1.1.2-.3.2-.6.6-.5.9.1.6.9.7 1.4.7 7.2.2 13.6 1.4 20.7 0 4.7 7 15.2 7.8 21.1 1.8.3-.3.6-.6 1-.6l.7.2c2.1.8 4.7-.3 5.6-2.3.2 1.4 1.7 2.4 3.1 2.4 1.4 0 2.7-1 3.6-2.1 2.6 2.4 6.2 3.8 9.7 3.8 2.5 0 5-.7 7.1-2a37 37 0 004.6-3.7c1.5 1.5 4.4 1.1 5.5-.7 1.1 1.7 3 2.8 5 3 .5 0 5.6 0 5-1.4a9 9 0 0012.2 3.8c2.2 3.2 6.3 5 10.2 4.4 3.8-.6 7.3-3.4 8.5-7.1 4.1 2.4 9.5 2.5 13.7.2-.4 2.3 2.8 4.4 4.7 3.1 1.4 2.5 6.2 1.4 6.3-1.5 1.6 2.1 5.6 1.2 6.2-1.4.7 1.5 2.8 1.9 4.4 1.5 1.6-.4 3.1-1.3 4.8-1.5 3.5-.5 7.7 2 10.3-.3l10.8.4 16.6.7c1.9.1 3.8 0 5.7-.1l.3-.1c-11-3.2-22.8-4.3-34.3-3.2z" class="st49"/>
      </g>
      <g>
        <path d="M177.8 141.4a9 9 0 00-9.4-2.8 9 9 0 00-6.1 7.7c-1.4-1.1-3.7.9-2.9 2.4-.9-1.9-4.3-1.6-4.8.4-.6-1.1-2-1.7-3.2-1.3-1.2.4-1.9 1.7-1.7 3-1.9-.5-2.6.8-4.3 1-1.2.2-2.3-.8-3.4-.4-.2.1-.4.3-.3.5l.3.3c2.7 1 5.8 1.2 8.6.5a7 7 0 008.4-.6c1.3 2 4.1 2.7 6.4 2.3 2.4-.4 4.5-1.7 6.5-2.9.9 2.4 3.7 3.6 6.3 3.5 2.6-.1 5-1.2 7.3-2.4 2.4 3.9 8.8 1.4 11.5-.7a2.4 2.4 0 002.7 1.5c1.1-.2 2-1 2.5-2-.4.8 9.1 4.5 8 .2 1.5 2.3 5.6 2.1 6.9-.4 1.1 1.7 3.4 2.3 5.4 1.9 2-.4 3.7-1.5 5.4-2.6 2.8 2.9 8 3.1 11 .4 1.1 1.2 3.3.9 4.1-.5.4 1.9 3.8 2 4.3.2.1.9 1 1.6 1.9 1.7.9 0 1.8-.7 1.9-1.6a4.2 4.2 0 005 .1c2.7 1.5 6.4 1 8.6-1.1a4.4 4.4 0 00-4.4.6c-.3-1.3-2-1.8-3.4-1.6-1.2.1-2.8.8-4 .3-1.2-.5-1.8-1.5-3.3-1.7-1.3-.1-2.7.3-3.7 1.1-.2-.2-.3-.5-.3-.8-.2-.7-1-1.2-1.8-1.3-.8-.1-2.7 0-3.3.7-1.9-1.7-3.8-3.5-6.4-4.1-2.5-.6-5.6.3-6.7 2.6-1.1-2.1-4.3-2.6-5.9-1a7.3 7.3 0 00-4.4-4.8c-2.2-.7-4.9.3-5.7 2.4-.5-1-2.3-.7-2.5.4-.5-2.1-3.4-3.2-5.3-2 .8-.5 1.1-1.7.6-2.6-.5-.8-1.7-1.1-2.6-.6 1.4-.7 1.1-3-.2-3.8-1.3-.8-3.1-.4-4.4.3 1.7-2.1-.1-5.9-2.7-5.9 1-.7 1.2-2 .8-3.1a4 4 0 00-2.5-2.3 6.4 6.4 0 00-6.6 1.2c-1.7 1.6-2.4 4.2-1.7 6.5-1.3.1-2.6.2-3.6 1s-1.4 2.5-.4 3.3c0 0 0 2.2.2 2.6.4.8 1.1 1.4 1.8 2l-1.5-.5c-.7.1-3.9 1.7-3 2.8z" class="st48"/>
        <path d="M248.4 150c-.6-1.1-2.2-.3-3.1.5 0-.8-.8-1.6-1.6-1.6-.8-.1-1.7.6-1.8 1.4-.2-1.5-2.6-2.1-3.5-.9-1.9-1-4.3-1-6.2 0-.1-1-1-1.9-2-2-1-.1-2 .6-2.3 1.5-.2-1.1-1.7-1.3-2.6-.7-.9.6-1.3 1.7-1.6 2.7-.2-.5-1-.8-1.5-.6.6-.8-.2-2-1.2-2.1-1-.1-1.9.4-2.7.9-1-.2-.8-1.7-1.2-2.7-.6-1.4-2.7-1.3-3.9-.4-1.2.9-2.1 2.2-3.4 2.9-.6-1.7-3.3-1.9-4.3-.5a2.4 2.4 0 00-2.3-1.9c-1.1 0-2.1.8-2.3 1.9-.5-1.5-2.4-2.1-3.9-1.8a8.4 8.4 0 00-3.8 2.7 3.4 3.4 0 00-3.5-1.6c1.1-1.8-.4-4.3-2.4-4.7-2-.4-4.1.9-5.3 2.6-.6.9-1.1 2-1.5 3.1-.2.6-1 2.1-.9 2.6a3.6 3.6 0 00-2.5-2.7c-1.2-.4-2.6 0-3.5.9l-.1-1.2c-.2-.8-1-1.3-1.8-1.3s-1.5.6-1.8 1.3c0-2.3-1.5-3.1-3.6-2.3-2 .7-3.3 2.8-3.3 4.9-3.2-1.3-6.9-.9-9.8 1-1.6-1.6-4.3.4-6.5 0l-.9-.3-.3.1c-1.2.2-2.3-.8-3.4-.4-.2.1-.4.3-.3.5l.3.3c2.7 1 5.8 1.2 8.6.5a7 7 0 008.4-.6c1.3 2 4.1 2.7 6.4 2.3 2.4-.4 4.5-1.7 6.5-2.9.9 2.4 3.7 3.6 6.3 3.5 2.6-.1 5-1.2 7.3-2.4 2.4 3.9 8.8 1.4 11.5-.7a2.4 2.4 0 002.7 1.5c1.1-.2 2-1 2.5-2-.4.8 9.1 4.5 8 .2 1.5 2.3 5.6 2.1 6.9-.4 1.1 1.7 3.4 2.3 5.4 1.9 2-.4 3.7-1.5 5.4-2.6 2.8 2.9 8 3.1 11 .4 1.1 1.2 3.3.9 4.1-.5.4 1.9 3.8 2 4.3.2.1.9 1 1.6 1.9 1.7.9 0 1.8-.7 1.9-1.6a4.2 4.2 0 005 .1c1.5.8 3.2 1 4.8.7-1.9-.8-4-1.2-6.1-1.6-2.2-.1-4.5-.5-6.5.2z" class="st49"/>
      </g>
    </g>
    <g>
      <linearGradient id="XMLID_65_" x1="360.8" x2="360.8" y1="316.1" y2="333.1" gradientUnits="userSpaceOnUse">
        <stop offset="0" stop-color="#0b580a"/>
        <stop offset="1" stop-color="#0b470c"/>
      </linearGradient>
      <path fill="url(#XMLID_65_)" d="M353.3 317.6c-.2-.1-.7.1-.8-.2v-.3c-.1-.2-.7-.3-.9-.3l-.3-.1v-.1l.1-.5c-.2 0-.4.2-.4.4l-.1-.3.1-.6h-.3l-.2.3c-.1.4.1.7.1 1 .1.4-.2.7-.5 1a16 16 0 00-2 2.4l-.2.4c-.1.4.2.8.5 1 .4.2.8.1 1.2.1l.1-.1c.4 0 .7.3 1 .5.4.2.9.2 1.4.3.5.1 1 .3 1.2.7l.2.5.3.4.1.6c.1.5.3.9.6 1.4.2.4.4.8.8 1 .2.2.5.3.8.3.3.1.6 0 .6.4l-.1.9v.4l.2.3v1c-.2.6-.4 1.2-.8 1.7v.3h1.1l.1-.4.2-.1.1-.3c-.1-.7.2-1.5.5-2.2 0-.1.1-.2.2-.1l.1.1c.1.5.3 1 .1 1.4-.1.4-.5.6-.6 1l1.1.1c0-.2 0-.4.2-.5h.1c.1-.1.1-.3 0-.4-.2-.4-.1-.9-.1-1.4l.1-1.3c0-.2-.1-.8.1-.9l.3-.1c1.8.1 3.5 1.1 5.2.9.8-.1 1.6-.5 2.4-.8.4-.2.7-.3 1.1-.2.2.1.4.3.4.5l.1.3h.3v-.2c0-.2.3-.3.4-.2-.1.1 0 .3.1.4l.1-.3h.1c.2 0 .4-.2.5-.3.1-.1 0-.4.3-.4l.3.3c.2.4.3.8.7 1l-.1.3.2.3.1.3.3 1.8c0 .4 0 .9-.3 1.1l-.4.4 1.2.1.2-.1v-.2c.1-.2.4-.1.5-.3.1-.1 0-.3-.1-.5l.1-.6v-.9c.1-.6.5-1.2.4-1.7l-.1-.6.1-.3c.1-.4.1-.8-.1-1.2l-.1-.3.1-.2v-.5l-.2-.9c-.1-.3 0-.5 0-.8l-.2-2-.2-1.1c-.2-.6-.7-1.1-1.3-1.4-1.3-.7-2.6-.3-3.9 0l-2.9.4-2.3.1c-.9 0-1.7-.2-2.6-.3l-5.6-.8-.7-.2-.4-.6z"/>
      <linearGradient id="XMLID_66_" x1="392.7" x2="392.7" y1="319.8" y2="336.6" gradientUnits="userSpaceOnUse">
        <stop offset="0" stop-color="#0b580a"/>
        <stop offset="1" stop-color="#0b470c"/>
      </linearGradient>
      <path fill="url(#XMLID_66_)" d="M404 328.1c0-.5.2-.9.3-1.4.2-.7.2-1.4.2-2.1 0-.7 0-1.4-.2-2.1a3 3 0 00-1.2-1.7c-1-.6-2.3-.4-3.5-.3-1.7.2-3.3 0-5-.1-1.6-.1-3.1 0-4.6.2l-1.8.1a4.1 4.1 0 00-3.1 2.3c-.3.8-.4 1.6-.9 2.4l-.4.6c-.4.6-.4 1.3-.5 2-.1.7-.3 1.4-.9 1.8-.1 0-.1.1-.2 0l-.1-.1c-.1-.2-.2-.5-.5-.4h-.1c-.2.1-.2.4-.2.6l.3.6.1.2-.1.2-.4.6c-.1.2-.2.5 0 .7.1.2.3.3.3.5v.7l-.3 1c-.1.3-.5.8-.4 1l.1.2v.1c.2.5.8.2 1.1.1l.3-.1c.3-.1.4-.3.6-.5l.5-.5c.1-.1.3-.2.3-.4l.1-.2.4-.3c.3-.2.3-.6.3-1l.1-1.3c0 .1.1.1.2 0l.2-.1.4.1c.5.2 1.1-.1 1.5-.5 0 .3.3.5.5.6l.2.1.1.3c.2 1 .1 2.2-.4 3.1l-.5.8c.3.2.7.2 1.1.1l.2-.1.1-.3h.1c.2-.1.2-.3.2-.5l.1-1.1c0-.5.1-1.1.5-1.5l.4 1c.1.5.2 1-.1 1.5l-.2.5 1.2.1c-.1-.2.3-.2.3-.4v-.1l-.4-1.7v-.6l.1-.6-.2-.7v-.6l-.1-.4.1-.1.6-.4.2-.1h.3c1.1 0 2.2.4 3.3.8l.4.1 1.1.2.9-.2c.7-.1 1.5 0 2.1.3 0 .3 0 .6.2.8l.1-.2.2.1v-.5c.1-.1.3 0 .3.1l.1.4c.2 1.2.2 2.4-.2 3.5l-.7 1.1-.1.1.3.2c.3 0 .6 0 .8-.2l.1-.1.5-.1h.1c.1 0 0-.1 0-.2-.1-.3 0-.7.1-1l.8-2.9.2.3.3.6c.2.4.3.9.3 1.3v.5l.1.7-.2.8c-.1.1-.3.4-.2.5.2.2.9 0 1.1-.2l.3-.3h.1l.1-.2-.1-.2-.1-.8.1-1.6.1-.7.2-.7v-.2l.1-.2c.2-.5.3-1 .2-1.6l-.3-2.1zm-.2-1l-.5 3a1 1 0 01-.3-.7c-.1-.9.2-1.8.2-2.6 0-.4.2-.9.4-1.3l.3-1.4.1.4c0 .8 0 1.7-.2 2.6z"/>
      <linearGradient id="XMLID_67_" x1="426.7" x2="426.7" y1="312.8" y2="329.4" gradientUnits="userSpaceOnUse">
        <stop offset="0" stop-color="#0b580a"/>
        <stop offset="1" stop-color="#0b470c"/>
      </linearGradient>
      <path fill="url(#XMLID_67_)" d="M435.2 311.4l-.9.4c-.3.1-.6 0-.9-.1-.6-.2-.7-1.1-.8-1.6v-.1h-.1l-.1.1c-.1.4 0 1 .1 1.4.1.3.4.5.7.6.3.1.7.3 1 .2 0 .2-.2.3-.3.3-.3.1-.6-.1-.9-.1l-1.2.1h-1l-1.3.1h-.5l-.6.2-1.8.1c-.3 0-.5-.1-.8 0h-.9l-2-.1-.7-.1c-.6 0-1.2.1-1.7-.1l-.9-.2-1.1-.2-.7-.2c-.4-.2-.8-.2-1.3-.2-.4 0-.8-.3-1.3-.2a1 1 0 00-.7.3 2 2 0 01-.4.6c-.4.4-.9.8-1.2 1.3-.2.5-.2 1.1-.2 1.6l.2 2.3c.1.8.1 1.8-.1 2.6l-.3 1v1.7c0 .3 0 1.1.4 1.2l.2-.8.2-.9v-3.3c.8 1.2 1 2.9.4 4.2-.1.2-.2.5-.1.7l.2.2c.3.4.3.9.3 1.4l.4 1.8c.1.6.1 1.3-.2 1.8l.5.1.1.6h1.5c.2-.1.1-.4 0-.6l.5-.1h.1v-.1c0-.3-.2-.5-.4-.8-.5-.7-.8-1.6-.7-2.5l.2-.9.2-.7.2-.8.4-.7.1.3.1.1h.1c.3-.2.2-.7.3-.9.1-.2.4-.3.4-.5v-.1l.1-.1.4-.2h.2l.8.6c.5.3.9.5 1.5.6l1.5.2c1.1 0 2.3 0 3.4-.2.5-.1 1.1-.2 1.6 0 .5.3.8.9.9 1.5.1.6 0 1.2.2 1.8l.2.7.2 1.4-.1.9-.2.3c-.1.3.1.6.3.9l.2.2h.8c.2 0 .6-.1.6-.3 0-.1-.1-.3.1-.2h.6l.2-.1.1-.2-.3-.6c-.4-.4-.5-.9-.6-1.5v-.9l.5-.8c.3-.5.1-1.1.3-1.5l.7.1.5-.2c.2-.1.6-.1.7-.3l.2-.2c.3-.5.8-.7 1-1.2.2-.5.2-1.1.3-1.6.1-.7.5-1.4.7-2l.1-.1.3.1c.2.1.4-.1.5-.1.2 0 .5.2.7.1.2-.1.2-.3.3-.4h.3l.2-.2c.2-.5-.2-1-.3-1.5v-.6-1.4-.2c.1-.1.2-.3.1-.4l.6.2c.2.1.5.2.8.1l.4-.2.9-.4.1-.1-.1-.3-.2-.3-.2-.1a.8.8 0 00-.4-.2l-.3-.1c-.2-.1-.5 0-.7.1l-.5.1c-.2 0-.6-.2-.6-.5l1.3-.2.4-.2.3-.3c.4-.5.7-1 .7-1.6v-.1h-.1l-.6.9c-.2.3-.5.6-.8.7a2 2 0 01-1.3.1l-.3-.1c-.2-.6-1.2-.7-1.9-.3z"/>
      <linearGradient id="XMLID_68_" x1="317.4" x2="317.4" y1="306.3" y2="326.6" gradientUnits="userSpaceOnUse">
        <stop offset="0" stop-color="#0b580a"/>
        <stop offset="1" stop-color="#0b470c"/>
      </linearGradient>
      <path fill="url(#XMLID_68_)" d="M330.3 320.8l.1.4V322.4c0 .6 0 1.1-.2 1.6l-.1.2-.1.2-.1.5c-.1.3-.3.5-.3.8l.8.1c.3 0 .6 0 .7-.2.1-.2.1-.5.3-.6l.4-.2c.1-.1.1-.3 0-.4l-.3-.3c-.2-.3-.1-.6-.1-.9l.3-2.2c0-.4 0-.9.2-1.2l.1-.3-.1-.5-.7-1.5c-.3-1 .2-2.1.5-3.1.3-.8.8-1.7.7-2.6.2.8.2 1.5.1 2.3v2.7l-.3 1.1c0 .4.4.8.3 1.2l-.1.3c-.2.4-.2.8-.1 1.2.1.4 0 .7-.1 1.1v.1h.1l.3-.3c.1 0 .1.2.2.1v-.1l.1-.7.2-1v-1.2l.1-.4c.1-.5-.1-1-.3-1.4l-.1-1.3.1-3.2V310l-.2-1c-.1-.4-.3-.6-.5-.9l-.6-.6c-.7-.6-1.8-.3-2.6-.3l-2.2-.2c-.8 0-1.5.2-2.2.4l-4.7.8-3.5.2-1.8-.1-1.6-.2c-.7 0-1.4.2-2 .1l-1.3-.2-1.1.1c-.7 0-1-.5-1.5-.9a1 1 0 00-1.4.2l-.3.4-.5.2c-.2.1-.3.5-.6.6-.2.1-.4 0-.6-.1-.5-.2-1-.1-1.5.1l-.1.1v.1c.3.8 1.2 1.2 2 1.1.1 0 .3-.1.4.1v.1l.6 2.5v.3l-.1.4-.2.7c.1.3.3.5.6.6l.9.1h.4l.6-.3c.3-.1.6.1.7.3l.2.8c.1.1 0 0 0 .1l-.2.1h-1.2l-.9-.2c-.3 0-.6.1-.7.3l-.4-.2-.6-.3c-.4-.1-.8 0-1.1.3l-.1.1h-.1l-.8-.2c-.3-.1-.5-.1-.8 0l-.2.3.1.2c.3.4.9.7 1.5.7h.2v.1l.3 1c0 .4-.1.8.2 1 .2.2.5.2.7.1h.2c.2 0 .3.3.3.5.1.4.5.6.8.9l.6.5.5.4.1.1.1.1.1.7v.3l-.1.7.2.7.2 1.4-.1.3-.2.3c-.1.1-.4.4-.4.6 0 .3.6.2.8.2h.2l.2-.3c.2-.2.3-.2.2-.5-.2-.5-.2-1-.2-1.6l.1-.4.2-.3c.2-.4.1-.9.3-1.3l.3-.6.1-.6c.1-.2.3-.2.4-.3l.3-.1h1.7l.2.2h.6l.8-.4c.1.2 0 .5-.1.7l.2.6c.2.5.2 1.1.2 1.7v.2l-.2.1c-.4.3-.7.7-.7 1.2h.7c.2 0 .5 0 .5-.2v-.2l.3-.2.2-.4v-.5c-.1-.7 0-1.5.3-2.2.3.1.5.4.6.6l.5.8.1.2-.1.1-.5.7c-.2.2-.3.5-.3.8h1.1v.1c.1.3.1.8-.1 1.1l-.3.4-.1.4h1.3c.1-.1 0-.3.2-.4l.2-.1c.1-.1.1-.2 0-.4-.2-.4.1-.8 0-1.2l-.2-.4c-.3-.6-.1-1.3 0-2v-.3l-.3-.4c-.1-.3 0-.6 0-.8v-1.8c1.4-.1 2.7.2 4.1.2 1.6.1 3.2-.1 4.7-.7h.2l.2.1c.2.2.4.3.4.6l-.1.3-.2.6v.3l.2.2.3-.2.6-.8.1-.1h.1l.8.5-.1 1v.2l.3.1.2-.3.4-.7.2.4c.1.8-.1 1.6-.3 2.4-.1.3-.1.6-.3.8l-.5.7c-.2.3-.1.7-.3 1l-.4.3-.3.4c-.1.5 1.3.3 1.5.3h.2l.2-.4c.1-.2.2-.5.5-.5l.2-.1.2-.4c0-.2-.1-.3 0-.4l.1-.4.4-1a8 8 0 01.6-2.2z"/>
    </g>
  </g>
</svg>
