<?xml version="1.0" encoding="utf-8"?>
<!-- Generator: Adobe Illustrator 23.0.3, SVG Export Plug-In . SVG Version: 6.00 Build 0)  -->
<svg version="1.1" id="レイヤー_2" xmlns="http://www.w3.org/2000/svg" xmlns:xlink="http://www.w3.org/1999/xlink" x="0px"
	 y="0px" viewBox="0 0 100 100" style="enable-background:new 0 0 100 100;" xml:space="preserve">
<style type="text/css">
	.st0{fill:#3C6BD6;}
	.st1{fill:#FFFFFF;}
	.st2{display:none;fill:#D1722E;}
	.st3{fill:#D1722E;}
	.st4{fill:#FF8B38;}
</style>
<rect class="st0" width="100" height="100"/>
<path class="st1" d="M11.8,28C-5.9,47.3,16,73.6,19.6,79.7s6.4,10.6,7,15.2c0.6,4.6,0.8,8.9,0.8,8.9l55.8,0.2c0,0,2-8.5-1.8-14.9
	c-2-3.5-4.1-9.5-14.8-16.1s-17.4-9.7-21.9-12.3s-7.8-8-5.3-11.5c2.5-3.5,5.6-3.6,8.1-3s12.8,0.5,15.5-10s1.6-15.1-1.5-18.4
	C51.7,7.2,29.4,8.7,11.8,28z"/>
<path class="st2" d="M53.6,44.3c-2.8,1.2-4.2,1-4.1,2.5c1,1.3,3.9,2.1,5.3,2.6c1.4,0.5,4.4,0.7,6.8,1.7c2.4,0.9,9.1,3.7,11.9,4.5
	c2.8,0.9,5.1,1.3,6.7,1.4s6.5-0.2,7.7-0.4c1.2-0.3,3.8-0.1,4.7-0.6c1-0.6,2.3-0.9,2.7-2.4c0.4-1.5,0.3-3-0.4-3.5
	c-0.7-0.5-10.9-4-14.4-5.1c-3.5-1.1-10.1-3.5-13.7-4.1c-2.1-0.4-5.8-1.1-9.1-1.5C56,41.7,54.8,43.8,53.6,44.3z"/>
<path class="st3" d="M58.8,41.3c-2.6,1-3.8,0.6-3.9,2.2c0.8,1.4,3.2,2.4,4.4,3c1.2,0.6,3.8,1.1,5.8,2.2c2,1.1,7.7,4.4,10.1,5.5
	c2.4,1.1,4.4,1.7,5.8,2c1.5,0.3,5.7,0.4,6.9,0.2s3.3,0.2,4.2-0.2c0.9-0.5,2.1-0.7,2.6-2.2c0.5-1.5,0.6-3,0-3.5s-9.3-4.9-12.3-6.3
	c-3-1.4-8.6-4.3-11.7-5.2c-1.8-0.5-5-1.6-7.9-2.3C61.2,38.9,59.9,40.9,58.8,41.3z"/>
<path class="st4" d="M64.8,26.3c-1.5,0-3.7,0.4-5,2.7c-2,3.6-1,7.1-1.7,8.9c-0.7,1.8-1.7,3-2.9,4.7c1.9,0.5,2.4,0.4,4.2,1.2
	c4.2,1.8,11,6.1,14.7,7.3c3.7,1.1,7.6,3.3,12.3,3.2s9-1.9,9.3-3c0.3-1.1-0.2-2.6-2-4.2c-2.5-2.1-3.3-1.3-5.3-2.5
	c-2-1.3-13.2-9.3-15.3-11.2C70.8,31.5,64.8,26.3,64.8,26.3z"/>
<circle cx="40.5" cy="26" r="2.9"/>
</svg>
