<svg xmlns="http://www.w3.org/2000/svg" viewBox="0 0 100 100"><path d="M14.39,71a1,1,0,0,0,.16-1.41c-.19-.24-19-24.17-1.27-42C32.55,8.22,51,8.85,59.94,17.65a12.6,12.6,0,0,1,3.72,7.85c-5.44,1.14-5.89,5.65-6.35,10.41L57.2,37a8.1,8.1,0,0,1-3,4.83l-.06.05a26.37,26.37,0,0,1-5.51,3.62,10,10,0,0,0-9.53,2.39c-1.14,1.2-3.39,4.55.4,9.65,2.53,3.39,7.55,6,13.36,8.94,9.49,4.85,21.29,10.89,27.4,23.23a1,1,0,1,0,1.79-.89c-6.4-12.93-18.53-19.13-28.28-24.12-5.59-2.86-10.42-5.33-12.67-8.35-2.09-2.81-2.28-5.25-.56-7.07,2-2.15,6.39-2.83,8.61-1.35,2.73,1.82,6,2.57,9.14,3.3A28.19,28.19,0,0,1,64.36,53c12.18,5.6,16.87,5.12,22.81,4.51,1-.1,2-.2,3.1-.28,3.55-.26,5.83-2.16,6.08-5.07a7.6,7.6,0,0,0-5.91-7.63c-4.66-1.17-19.15-13.69-24.71-18.75-.54-4.29-1.83-7.1-4.39-9.61-9.65-9.47-29.25-10.38-49.49,10C-7.08,45.26,12.78,70.59,13,70.84A1,1,0,0,0,14.39,71ZM90.13,55.29c-1.12.08-2.16.19-3.15.29-5.86.6-10.1,1-21.75-4.33a29.57,29.57,0,0,0-6.48-2,28.07,28.07,0,0,1-7.91-2.67,26.78,26.78,0,0,0,4.29-2.94c4,.42,6.62,2.3,9.67,4.48,3.57,2.56,7.62,5.45,14.51,6.14,2,.2,3.73.28,5.3.28A24.37,24.37,0,0,0,94.11,53C93.58,54.31,92.19,55.14,90.13,55.29ZM90,46.52a5.84,5.84,0,0,1,4.27,4.19C93,51.44,89,53.2,79.51,52.25,73.15,51.62,69.5,49,66,46.48c-2.77-2-5.41-3.85-9.06-4.6a8.68,8.68,0,0,0,2.28-4.69l.11-1.08c.51-5.21,1-8,5.17-8.72C67.23,29.89,84.15,45.07,90,46.52Z"></path><path d="M10.84,37.09a1,1,0,0,0-1.25.67C6.7,47.29,9.86,56.8,13,63.11a1,1,0,1,0,1.79-.9c-3-6-6-15-3.3-23.88A1,1,0,0,0,10.84,37.09Z"></path><path d="M45.24,25.86a1,1,0,0,0-1.67-1.09s-2.81,4.17-9,1.74a1,1,0,0,0-.73,1.86,12,12,0,0,0,4.41.91A8.64,8.64,0,0,0,45.24,25.86Z"></path><path d="M69.8,40.23A1,1,0,0,0,71,38.6l-5.6-4a1,1,0,0,0-1.16,1.63Z"></path></svg>
